<svg width="605" height="605" viewBox="0 0 605 605" fill="none" xmlns="http://www.w3.org/2000/svg">
<path fill-rule="evenodd" clip-rule="evenodd" d="M112.925 416.799L120.81 403.908L122.622 403.333C123.332 403.127 124.078 403.078 124.809 403.188C125.545 403.307 126.244 403.592 126.852 404.023L127.686 404.626L130.19 406.411C132.051 407.778 132.709 410.256 131.772 412.367C130.626 414.902 129.269 417.338 127.715 419.647C126.277 421.691 124.752 423.244 123.398 423.33C122.109 423.347 120.837 423.019 119.716 422.381C117.397 420.821 115.22 419.058 113.212 417.115L112.952 416.827L112.925 416.799ZM163.02 367.882H162.992C160.146 367.134 158.042 369.203 155.999 371.337C154.265 373.181 152.659 375.142 151.194 377.208C150.039 378.735 150.086 380.856 151.309 382.33L151.339 382.387L151.453 382.503C152.157 383.417 153.002 384.213 153.957 384.862C156.287 386.386 157.726 384.977 159.683 383.078C159.913 382.875 160.115 382.646 160.344 382.416L160.603 382.157C160.949 381.782 161.295 381.438 161.611 381.063C162.761 379.797 163.855 378.473 164.891 377.15L164.92 377.121C165.754 376.056 166.502 375.078 167.135 374.216C167.59 373.592 167.795 372.823 167.711 372.057C167.652 371.287 167.29 370.573 166.705 370.071L166.675 370.014C166.197 369.592 165.687 369.207 165.151 368.863L165.094 368.834C164.458 368.407 163.758 368.086 163.02 367.882ZM88.2658 302.046C88.7699 301.878 89.0677 301.358 88.9569 300.837C88.2597 297.611 88.6754 294.243 90.1359 291.284L90.7985 290.074C92.7783 286.865 95.9056 284.529 99.5451 283.542L120.609 277.903L126.91 301.38C127.392 303.14 127.519 304.979 127.284 306.789C127.031 308.593 126.435 310.332 125.529 311.911C124.619 313.486 123.406 314.867 121.96 315.972C120.525 317.083 118.881 317.895 117.127 318.361L112.867 319.511C112.766 319.533 112.668 319.571 112.58 319.627L105.243 321.411C104.702 321.546 104.374 322.094 104.51 322.633C104.645 323.174 105.193 323.502 105.733 323.366L112.408 321.754L114.767 330.618C114.912 331.142 115.445 331.46 115.975 331.337L118.796 330.876C116.595 337.657 109.315 341.37 102.534 339.169C99.9953 338.345 97.7757 336.755 96.178 334.617L96.8111 334.531C97.359 334.443 97.733 333.927 97.6456 333.379L97.6171 333.265L91.6034 310.794C91.4652 310.258 90.9174 309.933 90.3808 310.072C90.3757 310.073 90.3717 310.074 90.3666 310.076L86.4527 311.141L85.4749 311.4C84.9495 311.542 84.4007 311.572 83.863 311.486C83.3223 311.432 82.801 311.255 82.3385 310.968L82.2806 310.938C81.8182 310.682 81.4157 310.329 81.1006 309.904C80.7805 309.483 80.5457 309.004 80.4105 308.493L80.3811 308.407C80.0813 307.356 80.2378 306.228 80.812 305.299C82.1078 302.998 86.164 302.594 88.2373 302.047L88.2658 302.046ZM103.056 308.804C102.503 308.801 102.051 309.246 102.048 309.799C102.048 309.803 102.048 309.807 102.048 309.811C102.042 310.667 102.199 311.517 102.51 312.315C102.537 312.401 102.566 312.486 102.595 312.573C103.7 315.161 106.227 316.854 109.041 316.889H109.127C113.033 316.893 116.202 313.73 116.206 309.825C116.206 309.821 116.206 309.815 116.206 309.811C116.21 309.259 115.765 308.808 115.213 308.804C115.208 308.804 115.204 308.804 115.199 308.804H103.056ZM426.567 245.27C426.962 257.122 433.777 267.818 444.353 273.182L437.706 287.395C421.615 279.449 411.277 263.212 410.888 245.27H426.567Z" fill="white"/>
<path fill-rule="evenodd" clip-rule="evenodd" d="M126.162 534.314L134.419 549.017H105.444L108.724 534.314H126.162ZM183.019 534.314L196.864 549.017H164.402V534.314H183.019ZM114.796 409.864L118.824 403.303L108.35 395.534L104.35 392.571L91.2007 382.786L85.9635 378.931C85.6302 378.7 85.4615 378.295 85.5316 377.895L87.92 364.486L91.0564 346.818C91.0849 346.646 91.1143 346.502 91.1428 346.329V346.301C91.6022 341.645 88.3468 337.44 83.7235 336.719C81.5161 336.388 79.2659 336.924 77.4446 338.216C76.5025 338.875 75.6925 339.704 75.0552 340.661C74.4383 341.635 74.0175 342.72 73.8183 343.856L67.4876 379.334C66.6206 384.293 68.8535 389.28 73.1282 391.936L91.6865 403.389C91.7444 403.389 91.7729 403.419 91.8308 403.447L111.344 415.503L114.796 409.864ZM157.238 387.333C158.678 386.637 159.983 385.692 161.093 384.542C162.67 382.965 164.16 381.303 165.554 379.562L171.049 389C173.392 393.011 172.086 398.158 168.115 400.567C168.051 400.596 167.993 400.634 167.942 400.683C165.975 401.824 163.63 402.125 161.438 401.517C160.333 401.209 159.297 400.692 158.389 399.993C157.488 399.29 156.743 398.408 156.2 397.403L149.669 385.519L150.59 384.598C150.952 384.995 151.336 385.37 151.742 385.722C153.295 387.043 155.197 388.023 157.208 387.332L157.238 387.333ZM404.208 369.723H503.739V350.675L488.057 356.603C486.247 357.284 484.322 357.607 482.389 357.551C480.449 357.486 478.542 357.036 476.777 356.23L470.272 353.267C466.323 351.483 461.737 351.831 458.101 354.188L452.087 358.129C450.144 359.402 447.924 360.192 445.613 360.431C443.311 360.667 440.985 360.361 438.822 359.539L432.031 356.949C428.091 355.432 423.654 355.982 420.205 358.417L404.208 369.723ZM141.44 352.631L145.066 349.006L145.095 348.977L145.123 348.948C145.68 348.421 146.288 347.948 146.937 347.538L138.591 333.155C137.753 331.746 136.536 330.6 135.081 329.845C135.929 330.565 136.666 331.407 137.268 332.342C137.991 333.523 138.48 334.831 138.707 336.197L141.44 352.631ZM190.703 317.555L220.225 292.924V254.481C199.14 255.051 182.332 272.291 182.3 293.384C182.302 297.917 183.091 302.416 184.631 306.678C186.081 310.596 188.13 314.265 190.703 317.555ZM114.071 310.822C113.87 311.791 113.389 312.682 112.689 313.383C111.743 314.327 110.459 314.856 109.122 314.85H109.065C106.684 314.841 104.639 313.156 104.173 310.822H114.071ZM439.539 288.259C442.436 289.544 445.452 290.537 448.545 291.224C451.967 291.971 455.46 292.346 458.963 292.342C485.516 292.366 507.062 270.859 507.086 244.306C507.097 231.88 502.297 219.932 493.693 210.968L482.615 222.046C485.28 224.907 487.414 228.219 488.916 231.829C495.773 248.366 487.926 267.331 471.388 274.188C467.449 275.821 463.226 276.662 458.963 276.66C456.601 276.661 454.246 276.399 451.941 275.882C449.967 275.456 448.04 274.839 446.186 274.041L439.539 288.259ZM408.842 142.636V176.1H393.22V142.636H408.842ZM433.387 137.452V176.1H417.791V137.455L433.387 137.452ZM457.96 131.557V176.1H442.335V131.556L457.96 131.557ZM482.532 124.767V176.1H466.904V124.766L482.532 124.767ZM507.078 116.998V176.1H491.454V116.997L507.078 116.998ZM474.823 62.6143C474.021 61.8155 472.932 61.3693 471.8 61.3764C470.695 61.3622 469.629 61.787 468.836 62.5574L468.779 62.6143C467.123 64.2832 467.133 66.9785 468.802 68.6351C470.471 70.2917 473.166 70.2816 474.823 68.6128C476.47 66.9531 476.47 64.274 474.823 62.6143ZM494.474 62.6143C492.806 60.9201 490.08 60.8998 488.387 62.5676C486.692 64.2364 486.672 66.9622 488.34 68.6554C490.009 70.3497 492.734 70.37 494.428 68.7022C495.249 67.8932 495.711 66.7884 495.712 65.6359C495.719 64.5037 495.274 63.4152 494.474 62.6143ZM514.128 62.6143C513.326 61.8145 512.238 61.3693 511.106 61.3764C509.973 61.3642 508.883 61.8104 508.085 62.6143C506.416 64.2547 506.394 66.9378 508.035 68.6067C508.052 68.6239 508.069 68.6402 508.085 68.6565C508.88 69.4685 509.969 69.9248 511.106 69.9228C512.242 69.9198 513.329 69.4634 514.128 68.6565C515.777 66.9795 515.777 64.2913 514.128 62.6143Z" fill="#F54F59"/>
<path fill-rule="evenodd" clip-rule="evenodd" d="M97.7611 434.585L112.781 419.565C112.374 419.158 112.033 418.788 111.745 418.5C111.4 418.126 111.141 417.809 110.997 417.666L94.7355 407.652L91.3694 405.551L71.7735 425.177C68.8017 428.12 68.7783 432.914 71.7216 435.886C71.7389 435.903 71.7562 435.92 71.7735 435.938L78.7079 442.872C80.1379 444.296 82.076 445.094 84.0945 445.088C86.1089 445.082 88.0399 444.286 89.475 442.872L97.7611 434.585ZM162.647 365.757C162.593 365.733 162.534 365.724 162.475 365.728C161.813 365.655 161.143 365.685 160.489 365.815H160.46C158.59 366.221 156.49 367.914 154.533 369.958C152.729 371.86 151.065 373.888 149.553 376.029C148.05 378.09 147.948 380.855 149.293 383.021L146.733 385.582L129.125 403.188L128.032 402.382C127.17 401.784 126.187 401.381 125.153 401.202C124.116 401.025 123.052 401.095 122.046 401.406L120.349 401.924L105.816 391.134L141.84 355.079L146.473 350.447C147.908 349.033 149.839 348.237 151.854 348.231C153.872 348.225 155.81 349.023 157.24 350.447C158.131 351.339 164.635 356.921 165.843 359.884L165.873 359.914V359.972L165.901 360V360.057H165.93C166.014 360.292 166.082 360.533 166.133 360.777L166.162 360.806C166.28 361.278 166.358 361.759 166.392 362.244C166.51 363.784 166.148 365.322 165.356 366.647C164.784 366.331 164.176 366.088 163.543 365.926C163.262 365.842 162.972 365.785 162.68 365.755L162.647 365.757ZM485.497 326.479C487.677 323.946 490.3 321.83 493.237 320.235C496.566 318.715 500.108 317.714 503.74 317.271V348.521L487.339 354.701C485.78 355.303 484.117 355.586 482.447 355.535C480.774 355.485 479.129 355.093 477.612 354.384L471.138 351.421C468.875 350.398 466.394 349.953 463.916 350.125C461.454 350.323 459.079 351.135 457.01 352.485L450.967 356.428C447.577 358.646 443.324 359.096 439.545 357.635L432.753 355.046C428.187 353.287 423.043 353.937 419.056 356.773L402.051 368.802V358.185L420.236 344.401C421.957 343.104 423.958 342.226 426.078 341.84C428.204 341.438 430.395 341.557 432.466 342.186L436.063 343.222C439.399 344.225 442.985 343.989 446.162 342.56C449.325 341.148 451.884 338.66 453.384 335.539C453.413 335.482 453.413 335.453 453.442 335.396C455.05 332.026 457.925 329.43 461.441 328.174C463.192 327.539 465.048 327.256 466.908 327.339C468.762 327.444 470.579 327.902 472.261 328.691L472.606 328.864C474.727 329.841 477.098 330.143 479.397 329.727C481.713 329.31 483.838 328.172 485.469 326.474L485.497 326.479ZM221.836 332.321C225.104 332.263 228.352 331.799 231.505 330.939L221.29 297.101L217.405 311.575L212.14 331.256C215.316 332.008 218.573 332.364 221.836 332.317V332.321ZM492.259 209.536C473.101 191.145 442.662 191.767 424.271 210.925C415.913 219.632 411.135 231.163 410.885 243.23H426.567C427.11 225.73 441.459 211.828 458.968 211.838C467.214 211.857 475.148 214.991 481.181 220.614L492.259 209.536Z" fill="#798EE7"/>
<path d="M259.56 262.366C259.21 261.937 259.274 261.306 259.703 260.955C260.132 260.606 260.763 260.67 261.113 261.1C262.138 262.344 263.099 263.641 263.99 264.985C264.882 266.366 265.688 267.746 266.436 269.157C266.696 269.632 266.521 270.227 266.047 270.486C266.033 270.495 266.018 270.502 266.004 270.509C265.521 270.771 264.919 270.592 264.657 270.109C264.656 270.107 264.653 270.104 264.652 270.102C263.933 268.721 263.128 267.398 262.293 266.103C261.459 264.841 260.538 263.604 259.56 262.366ZM106.911 533.163L111.573 488.793C111.74 487.139 111.778 485.474 111.688 483.813C111.573 482.149 111.342 480.496 110.997 478.864L102.65 442.12L100.462 442.753L98.4827 436.711L90.8856 444.307C87.1302 448.066 81.0393 448.068 77.2809 444.312C77.2789 444.31 77.2758 444.307 77.2758 444.307L70.3403 437.373C66.5799 433.604 66.5799 427.502 70.3403 423.734L89.6192 404.455L72.0671 393.636C67.0596 390.584 64.4497 384.761 65.5046 378.991L71.8354 343.484C72.0874 342.093 72.6047 340.764 73.3599 339.57C74.1211 338.382 75.109 337.355 76.2666 336.549C77.4364 335.751 78.7434 335.175 80.1216 334.851C81.266 334.608 82.4408 334.549 83.6035 334.678L94.9987 332.78L95.3727 332.722L91.6031 318.621C91.408 318.572 91.2291 318.473 91.0848 318.334C90.8266 318.074 88.8986 316.233 86.3659 313.241L85.9919 313.355C85.2134 313.561 84.4014 313.61 83.6035 313.5C82.7966 313.386 82.018 313.124 81.3066 312.726L81.2497 312.698C80.5748 312.291 79.9803 311.765 79.4945 311.144C79.0097 310.497 78.6489 309.765 78.4294 308.986V308.957C78.0188 307.38 78.2464 305.706 79.0625 304.296C79.1764 304.088 79.3014 303.886 79.4366 303.691C78.5737 302.282 77.7677 300.785 77.0197 299.26C76.1365 297.459 75.3671 295.604 74.7177 293.707C73.7105 290.743 72.5306 285.966 73.5997 281.909C74.6689 277.852 77.7718 274.543 85.0843 274.197C84.7103 271.09 84.9695 263.119 97.4287 262.572C100.406 262.474 103.384 262.678 106.32 263.182V65.7214C106.297 58.8306 111.865 53.2265 118.756 53.2042C118.783 53.2042 118.809 53.2042 118.837 53.2042H526.185C533.076 53.1818 538.68 58.7493 538.702 65.64C538.702 65.6675 538.702 65.6939 538.702 65.7214V77.0586C538.702 179.81 539.334 282.562 538.702 385.32C538.461 392.034 533.074 397.422 526.36 397.664C486.651 397.923 446.95 398.105 407.262 398.21C406.708 398.205 406.259 397.757 406.254 397.203C406.25 396.935 406.354 396.676 406.542 396.485C406.724 396.278 406.987 396.162 407.262 396.168C446.941 396.081 486.631 395.908 526.33 395.65C532.004 395.422 536.526 390.825 536.66 385.147V78.0647H108.35C108.35 139.873 108.091 201.681 108.062 263.46C109.616 263.747 111.228 264.093 112.781 264.467C119.676 266.174 126.445 268.356 133.038 270.999C133.795 271.294 134.425 271.843 134.823 272.553C135.205 273.265 135.337 274.086 135.197 274.883C135.197 274.94 135.167 274.97 135.167 275.026C134.517 277.322 133.599 279.534 132.434 281.616C130.708 284.761 128.547 287.647 126.017 290.191L128.863 300.863C129.948 304.932 129.379 309.267 127.281 312.918C125.179 316.568 121.71 319.229 117.641 320.314L114.361 321.206L116.49 329.205L119.512 328.687C121.209 328.429 125.151 327.536 126.561 327.536L126.734 327.508L129.468 327.048C131.579 326.688 133.75 326.989 135.683 327.91C137.633 328.811 139.259 330.287 140.345 332.14L148.803 346.7C149.783 346.356 150.814 346.181 151.852 346.182C152.51 346.191 153.165 346.259 153.81 346.385L161.176 339.048C135.977 305.887 142.431 258.578 175.592 233.378C208.753 208.178 256.062 214.633 281.262 247.794C306.461 280.955 300.008 328.264 266.847 353.464C239.88 373.957 202.559 373.957 175.592 353.464L168.226 360.802C168.313 361.238 168.371 361.679 168.398 362.123C168.539 364.089 168.066 366.049 167.046 367.735C167.387 367.961 167.705 368.221 167.995 368.511L168.053 368.54C169.006 369.395 169.605 370.578 169.728 371.853C169.878 373.124 169.528 374.404 168.75 375.421C168.232 376.141 167.599 376.975 166.908 377.838L172.803 387.967C174.191 390.38 174.583 393.239 173.896 395.938C232.797 396.225 291.699 396.34 350.601 396.282C351.162 396.3 351.603 396.768 351.586 397.329C351.579 397.557 351.495 397.776 351.349 397.951C351.152 398.174 350.868 398.3 350.571 398.297C291.44 398.355 232.298 398.25 173.148 397.981C172.232 399.798 170.814 401.315 169.062 402.351L169.034 402.38C167.826 403.097 166.485 403.557 165.091 403.732C160.773 404.308 156.541 402.185 154.42 398.38L154.132 397.863H150.075C150.65 399.876 151.312 401.862 152.061 403.79C152.952 406.207 153.992 408.595 155.11 410.926L161.411 423.903L184.604 462.059C186.409 465.014 187.73 468.24 188.517 471.612C189.28 474.989 189.513 478.465 189.207 481.914L184.488 532.934L199.653 549.019H489.382C489.947 549.019 490.404 549.477 490.404 550.041C490.404 550.605 489.947 551.062 489.382 551.062H94.3076C93.7435 551.062 93.2862 550.605 93.2862 550.041C93.2862 549.477 93.7435 549.019 94.3076 549.019H103.372L106.911 533.163ZM162.505 532.818V488.912C162.497 485.939 162.061 482.984 161.21 480.136C160.339 477.296 159.069 474.592 157.44 472.107L140.089 445.893C139.965 445.721 139.809 445.575 139.629 445.462C139.436 445.347 139.219 445.278 138.996 445.259C138.773 445.233 138.549 445.253 138.334 445.316C138.11 445.388 137.907 445.515 137.747 445.687C137.593 445.858 137.471 446.053 137.384 446.266C137.308 446.478 137.288 446.707 137.327 446.928L141.384 476.94C141.695 479.19 141.763 481.467 141.587 483.731C141.417 486.002 141.011 488.251 140.379 490.439L127.833 533.169L136.754 549.024H162.392V533.307C162.385 533.137 162.423 532.968 162.504 532.818H162.505ZM125.99 532.271L138.425 489.857C139.023 487.812 139.408 485.71 139.575 483.585C139.738 481.454 139.67 479.313 139.372 477.197L135.315 447.215C135.224 446.672 135.284 446.114 135.487 445.603C135.654 445.108 135.93 444.657 136.293 444.282C136.322 444.253 136.35 444.195 136.408 444.167C136.77 443.827 137.202 443.571 137.675 443.419C138.173 443.245 138.703 443.186 139.228 443.246C139.745 443.308 140.244 443.474 140.695 443.735C141.118 444.003 141.48 444.356 141.76 444.771L159.14 470.984C162.64 476.309 164.51 482.539 164.521 488.911V532.274H182.534L187.196 481.718C187.48 478.49 187.257 475.236 186.533 472.078C185.808 468.917 184.574 465.894 182.879 463.129L160.06 425.55C141.587 430.903 123.104 436.236 104.612 441.548L112.957 478.441C113.349 480.164 113.599 481.915 113.705 483.678C113.81 485.453 113.771 487.233 113.589 489.002L109.043 532.278L125.99 532.271ZM384.932 362.848V370.588C384.935 371.141 384.49 371.593 383.937 371.596C383.933 371.596 383.929 371.596 383.924 371.596H307.73C307.177 371.599 306.726 371.154 306.723 370.601C306.723 370.597 306.723 370.592 306.723 370.588V362.848C306.728 362.294 307.176 361.846 307.73 361.841H383.924C384.478 361.846 384.926 362.294 384.931 362.847L384.932 362.848ZM382.917 369.581V363.855H308.736V369.581H382.917ZM166.158 360.805L166.13 360.776C166.08 360.532 166.012 360.292 165.927 360.057H165.898V359.999L165.869 359.971V359.913L165.84 359.884C164.632 356.921 158.128 351.338 157.237 350.446C155.807 349.022 153.869 348.224 151.85 348.23C149.836 348.236 147.905 349.032 146.47 350.446L141.838 355.079L105.811 391.134L120.345 401.924L122.042 401.406C123.047 401.095 124.113 401.025 125.15 401.202C126.184 401.381 127.166 401.784 128.028 402.382L129.121 403.187L146.731 385.577L149.292 383.017C147.947 380.851 148.048 378.086 149.55 376.025C151.063 373.884 152.727 371.855 154.531 369.953C156.488 367.91 158.588 366.212 160.459 365.81H160.487C161.141 365.679 161.811 365.65 162.473 365.723C162.532 365.719 162.591 365.728 162.645 365.752H162.674C162.967 365.782 163.256 365.84 163.537 365.924C164.169 366.087 164.779 366.328 165.35 366.644C166.142 365.319 166.504 363.781 166.386 362.241C166.353 361.756 166.276 361.276 166.157 360.804L166.158 360.805ZM147.973 288.811C146.855 306.665 152.287 324.313 163.253 338.447C163.633 338.844 163.621 339.474 163.224 339.856L155.973 347.108C156.978 347.58 157.893 348.223 158.677 349.008C159.857 350.186 166.073 355.568 167.511 358.676L174.791 351.396C175.148 351.04 175.712 351.004 176.112 351.31C208.1 376.249 254.248 370.536 279.187 338.548C304.126 306.561 298.413 260.414 266.426 235.474C234.439 210.534 188.29 216.248 163.351 248.235C154.254 259.902 148.894 274.046 147.971 288.811H147.973ZM384.932 349.036V356.776C384.927 357.33 384.478 357.779 383.924 357.784H307.73C307.176 357.779 306.728 357.33 306.723 356.776V349.036C306.728 348.482 307.176 348.034 307.73 348.029H383.924C384.478 348.034 384.926 348.482 384.931 349.035L384.932 349.036ZM382.917 355.769V350.043H308.736V355.769H382.917ZM264.683 249.969C276.109 261.389 282.474 276.918 282.351 293.073C282.096 326.894 254.737 354.248 220.915 354.498C187.599 354.748 160.389 327.942 160.139 294.625C160.137 294.317 160.137 294.008 160.139 293.698C160.354 259.874 187.72 232.508 221.544 232.293C237.713 232.149 253.26 238.519 264.682 249.965L264.683 249.969ZM280.305 293.068C280.578 260.891 254.715 234.584 222.538 234.311C222.207 234.308 221.878 234.308 221.548 234.311C188.848 234.553 162.399 261.002 162.157 293.702C161.91 325.905 187.817 352.212 220.021 352.459C220.319 352.461 220.617 352.461 220.914 352.459C253.625 352.245 280.091 325.78 280.305 293.068ZM346.055 335.223V342.963C346.05 343.517 345.602 343.965 345.048 343.971H307.728C307.174 343.965 306.726 343.517 306.721 342.963V335.223C306.718 334.67 307.163 334.219 307.716 334.216C307.72 334.216 307.724 334.216 307.728 334.216H345.046C345.598 334.211 346.051 334.655 346.056 335.208C346.056 335.213 346.056 335.218 346.056 335.223H346.055ZM344.012 341.956V336.23H308.735V341.956H344.012ZM192.026 319.138C194.433 321.866 197.214 324.239 200.285 326.188C203.359 328.151 206.69 329.682 210.183 330.735L219.448 296.233L192.026 319.138ZM199.191 327.915C195.658 325.65 192.494 322.855 189.811 319.627H189.782C183.632 312.267 180.271 302.977 180.286 293.386C180.303 271.157 198.033 252.993 220.254 252.438H221.319C243.951 252.5 262.248 270.897 262.186 293.529C262.178 296.5 261.846 299.46 261.198 302.36L260.968 303.337C259.688 308.501 257.4 313.363 254.235 317.639C250.88 322.203 246.619 326.023 241.718 328.861C240.355 329.652 238.942 330.354 237.488 330.961C225.007 336.367 210.658 335.225 199.189 327.912L199.191 327.915ZM190.703 317.556L220.225 292.925V254.482C199.14 255.05 182.331 272.292 182.301 293.386C182.303 297.918 183.091 302.417 184.631 306.679C186.082 310.596 188.13 314.265 190.703 317.556ZM86.4523 311.139L90.3662 310.075C90.9008 309.928 91.4527 310.242 91.599 310.777C91.6 310.782 91.6021 310.788 91.6031 310.793L97.6168 333.267L97.6462 333.381C97.7316 333.929 97.3586 334.444 96.8108 334.533L96.1786 334.619C100.445 340.33 108.534 341.5 114.244 337.232C116.381 335.636 117.971 333.415 118.795 330.878L115.975 331.339C115.444 331.462 114.912 331.143 114.766 330.619L112.407 321.757L105.731 323.368C105.195 323.519 104.638 323.207 104.486 322.67C104.336 322.134 104.648 321.577 105.184 321.425C105.204 321.42 105.222 321.415 105.241 321.411L112.578 319.627C112.667 319.571 112.764 319.533 112.867 319.512L117.125 318.361C118.88 317.895 120.524 317.083 121.959 315.973C123.404 314.869 124.618 313.49 125.527 311.915C126.434 310.336 127.029 308.598 127.283 306.794C127.516 304.984 127.389 303.145 126.909 301.384L120.607 277.907L99.5437 283.546C95.9042 284.533 92.7759 286.869 90.7961 290.078L90.1345 291.287C88.674 294.246 88.2583 297.613 88.9545 300.84C89.0673 301.361 88.7696 301.882 88.2644 302.049H88.235C86.1637 302.596 82.1065 302.999 80.8157 305.301C80.2405 306.23 80.0829 307.358 80.3838 308.408L80.4133 308.494C80.5484 309.006 80.7832 309.484 81.1033 309.905C81.4184 310.33 81.8209 310.684 82.2833 310.941L82.3402 310.969C82.8027 311.256 83.324 311.433 83.8647 311.487C84.4024 311.573 84.9512 311.543 85.4766 311.401L86.4523 311.139ZM88.5246 312.663C89.3011 313.584 90.0207 314.361 90.6244 314.994L89.9058 312.289L88.5246 312.663ZM122.306 276.407L125.384 287.891C127.453 285.711 129.233 283.274 130.679 280.64C131.757 278.691 132.606 276.625 133.211 274.483C133.27 274.155 133.208 273.818 133.038 273.532C132.876 273.229 132.611 272.994 132.29 272.871C125.787 270.274 119.115 268.121 112.321 266.425C107.483 265.166 102.501 264.547 97.5019 264.584C85.129 265.13 87.0276 274.022 87.2298 274.857C87.2766 274.965 87.2959 275.083 87.2867 275.201C87.2816 275.755 86.8334 276.203 86.2795 276.208C79.3166 276.208 76.4394 278.971 75.547 282.395C74.6262 285.992 75.7198 290.337 76.6406 293.066C77.2494 294.879 77.9801 296.647 78.8267 298.361C79.4894 299.713 80.2079 301.008 80.9275 302.246C81.3676 301.959 81.8412 301.727 82.3372 301.555C83.7763 301.038 85.3303 300.72 86.7979 300.318C85.5163 291.882 90.7616 283.827 98.9939 281.586L121.065 275.691C121.598 275.543 122.151 275.855 122.3 276.388C122.303 276.394 122.305 276.402 122.306 276.408V276.407ZM350.315 273.644V281.385C350.331 281.942 349.893 282.405 349.336 282.421C349.326 282.421 349.317 282.421 349.308 282.421H307.729C307.165 282.411 306.716 281.949 306.722 281.385V273.644C306.727 273.09 307.175 272.643 307.729 272.638H349.308C349.861 272.635 350.312 273.08 350.315 273.633C350.315 273.637 350.315 273.641 350.315 273.645V273.644ZM348.301 280.377V274.681H308.736V280.377H348.301ZM384.931 259.833V267.574C384.934 268.127 384.489 268.578 383.936 268.581C383.932 268.581 383.928 268.581 383.923 268.581H307.729C307.176 268.584 306.725 268.139 306.722 267.586C306.722 267.582 306.722 267.578 306.722 267.574V259.833C306.727 259.279 307.175 258.831 307.729 258.826H383.923C384.478 258.831 384.927 259.279 384.931 259.834V259.833ZM382.916 266.566V260.869H308.736V266.566H382.916ZM463.14 223.952V225.764C465.356 226.138 467.405 227.182 469.01 228.757C470.623 230.586 471.468 232.967 471.369 235.404V236.522C471.375 237.085 470.925 237.547 470.362 237.557H463.111C462.541 237.559 462.078 237.1 462.076 236.53C462.076 236.527 462.076 236.525 462.076 236.522V235.026C462.16 234.312 461.929 233.597 461.442 233.068C460.087 232.303 458.428 232.303 457.072 233.068C456.585 233.597 456.355 234.312 456.439 235.026C456.439 237.871 459.346 239.63 462.511 241.558C466.798 244.147 471.459 246.966 471.459 253.096C471.552 255.542 470.684 257.928 469.043 259.743C467.441 261.345 465.381 262.41 463.148 262.792V264.552C463.15 265.122 462.69 265.586 462.12 265.588C462.117 265.588 462.115 265.588 462.112 265.588H455.839C455.276 265.578 454.826 265.115 454.832 264.552V262.797C452.592 262.426 450.521 261.371 448.905 259.775C447.271 257.945 446.415 255.551 446.516 253.1V250.628C446.522 250.074 446.97 249.626 447.524 249.621H454.774C455.338 249.615 455.801 250.064 455.811 250.628V253.474C455.72 254.181 455.978 254.889 456.501 255.373V255.402C457.182 255.82 457.978 256.011 458.775 255.949C459.575 256.018 460.376 255.815 461.047 255.373C461.571 254.889 461.829 254.181 461.738 253.474C461.738 250.628 458.803 248.87 455.64 246.942C451.381 244.352 446.72 241.532 446.72 235.404C446.612 232.988 447.447 230.625 449.05 228.814C450.615 227.222 452.637 226.156 454.834 225.765V223.953C454.828 223.388 455.277 222.926 455.841 222.916H462.114C462.684 222.917 463.145 223.379 463.144 223.95V223.953L463.14 223.952ZM461.097 226.594V224.954H456.842V226.594C456.846 227.088 456.494 227.513 456.008 227.601C453.951 227.823 452.027 228.724 450.54 230.162C449.3 231.618 448.662 233.491 448.757 235.4C448.757 240.406 452.9 242.909 456.698 245.211C460.381 247.427 463.777 249.499 463.777 253.47C463.878 254.799 463.331 256.095 462.309 256.951C460.14 258.294 457.399 258.294 455.231 256.951C454.209 256.095 453.662 254.799 453.763 253.47V251.628H448.527V253.096C448.438 255.036 449.109 256.936 450.397 258.39C451.906 259.84 453.865 260.734 455.95 260.923C456.457 260.988 456.838 261.418 456.842 261.929V263.541H461.101V261.929C461.111 261.43 461.473 261.009 461.964 260.923C464.069 260.725 466.045 259.822 467.575 258.362C468.845 256.91 469.505 255.023 469.417 253.096C469.417 248.088 465.273 245.585 461.475 243.283C457.792 241.068 454.396 238.996 454.396 235.026C454.29 233.72 454.789 232.436 455.749 231.544C457.874 230.124 460.645 230.124 462.77 231.544C463.718 232.444 464.214 233.722 464.122 235.026V235.514H469.36V235.4C469.451 233.482 468.788 231.604 467.514 230.167C466.02 228.728 464.083 227.836 462.018 227.635C461.49 227.578 461.092 227.13 461.097 226.599V226.594ZM357.278 246.017V253.758C357.281 254.311 356.836 254.762 356.283 254.765C356.279 254.765 356.275 254.765 356.271 254.765H307.729C307.176 254.768 306.725 254.323 306.722 253.77C306.722 253.766 306.722 253.762 306.722 253.758V246.017C306.727 245.463 307.175 245.015 307.729 245.01H356.271C356.827 245.015 357.276 245.466 357.278 246.022V246.017ZM355.264 252.75V247.024H308.736V252.75H355.264ZM536.658 65.7214C536.692 59.9699 532.055 55.2805 526.304 55.247C526.264 55.247 526.225 55.247 526.185 55.247H118.824C113.072 55.2145 108.383 59.85 108.35 65.6024C108.35 65.6421 108.35 65.6817 108.35 65.7214V76.0219H536.658V65.7214ZM114.795 409.865L118.824 403.304L108.35 395.534L104.35 392.571L91.2006 382.787L85.9635 378.931C85.6291 378.701 85.4604 378.296 85.5315 377.896L87.9199 364.487L91.0563 346.819C91.0848 346.647 91.1142 346.503 91.1427 346.331V346.301C91.6011 341.645 88.3457 337.441 83.7235 336.719C82.6695 336.57 81.5983 336.609 80.5586 336.835C78.3044 337.36 76.3377 338.73 75.0633 340.661C74.4453 341.635 74.0246 342.72 73.8254 343.856L67.4946 379.335C66.6287 384.293 68.8606 389.281 73.1353 391.938L91.6946 403.39C91.7525 403.39 91.781 403.419 91.8379 403.448L111.352 415.504L114.795 409.865ZM112.954 416.828L113.212 417.115C115.221 419.058 117.398 420.821 119.717 422.381C120.838 423.02 122.109 423.348 123.4 423.331C124.752 423.245 126.277 421.691 127.717 419.648C129.27 417.339 130.627 414.904 131.774 412.368C132.709 410.257 132.05 407.779 130.19 406.411L127.687 404.628L126.853 404.018C126.244 403.588 125.546 403.302 124.81 403.183C124.079 403.074 123.333 403.122 122.623 403.328L120.811 403.903L112.925 416.799L112.954 416.828ZM163.02 367.882H162.991C160.146 367.134 158.042 369.203 155.999 371.337C154.263 373.181 152.658 375.143 151.194 377.208C150.038 378.734 150.086 380.855 151.309 382.329L151.338 382.387L151.453 382.502C152.157 383.417 153.002 384.213 153.956 384.862C156.287 386.386 157.726 384.977 159.682 383.077C159.913 382.874 160.114 382.645 160.344 382.415L160.603 382.156C160.949 381.782 161.294 381.437 161.61 381.063C162.762 379.797 163.855 378.473 164.891 377.15L164.919 377.121C165.754 376.056 166.502 375.078 167.135 374.215C167.589 373.593 167.795 372.823 167.71 372.057C167.652 371.288 167.29 370.573 166.703 370.071L166.675 370.013C166.196 369.591 165.687 369.207 165.15 368.863L165.092 368.834C164.457 368.407 163.758 368.086 163.02 367.882ZM147.368 387.852L149.526 395.822L153.036 395.851L148.173 387.017L147.368 387.852ZM97.7611 434.585L112.781 419.565C112.375 419.158 112.033 418.787 111.745 418.499C111.4 418.125 111.141 417.809 110.997 417.665L94.7354 407.652L91.3683 405.548L71.7734 425.173C68.8016 428.116 68.7782 432.91 71.7216 435.882C71.7388 435.899 71.7561 435.916 71.7734 435.934L78.7078 442.869C80.1378 444.293 82.076 445.091 84.0944 445.085C86.1088 445.079 88.0398 444.283 89.4749 442.869L97.7611 434.585ZM401.735 396.199C402.016 396.2 402.287 396.314 402.483 396.516C402.677 396.715 402.781 396.986 402.77 397.264C402.741 397.803 402.304 398.229 401.764 398.243H388.755C388.204 398.248 387.754 397.807 387.748 397.256C387.745 396.99 387.85 396.734 388.037 396.545C388.222 396.343 388.482 396.229 388.755 396.228C392.44 396.225 398.081 396.196 401.735 396.196V396.199ZM382.168 396.228C382.722 396.234 383.17 396.682 383.175 397.236C383.205 397.508 383.097 397.777 382.888 397.954C382.706 398.161 382.443 398.276 382.168 398.271C375.234 398.271 363.925 398.3 357.048 398.3C356.545 398.301 356.118 397.934 356.041 397.437C355.986 397.147 356.072 396.848 356.271 396.631C356.465 396.401 356.748 396.266 357.048 396.257C364.04 396.254 375.231 396.254 382.168 396.225V396.228ZM72.5834 549.018C73.1475 549.018 73.6048 549.476 73.6048 550.04C73.6048 550.604 73.1475 551.061 72.5834 551.061H67.0586C66.4945 551.061 66.0372 550.604 66.0372 550.04C66.0372 549.476 66.4945 549.018 67.0586 549.018H72.5834ZM516.631 551.061C516.067 551.061 515.61 550.604 515.61 550.04C515.61 549.476 516.067 549.018 516.631 549.018H524.254C524.818 549.018 525.275 549.476 525.275 550.04C525.275 550.604 524.818 551.061 524.254 551.061H516.631ZM88.236 549.018C88.8 549.018 89.2574 549.476 89.2574 550.04C89.2574 550.604 88.8 551.061 88.236 551.061H78.655C78.0909 551.061 77.6336 550.604 77.6336 550.04C77.6336 549.476 78.0909 549.018 78.655 549.018H88.236ZM496.691 551.061C496.127 551.061 495.669 550.604 495.669 550.04C495.669 549.476 496.127 549.018 496.691 549.018H509.928C510.492 549.018 510.949 549.476 510.949 550.04C510.949 550.604 510.492 551.061 509.928 551.061H496.691ZM105.444 549.018H134.419L126.162 534.314H108.724L105.444 549.018ZM164.402 549.018H196.864L183.023 534.314H164.402V549.018ZM275.702 137.053V136.449H273.659V136.996L224.685 179.812L196.918 146.548V145.915H194.875V146.52L138.649 206.946V110.699H143.11L138.649 101.78V100.773H359.321C360.703 100.776 362.072 101.049 363.35 101.578C364.623 102.099 365.778 102.872 366.745 103.851C368.714 105.807 369.813 108.471 369.794 111.246V208.509H368.787L359.867 204.05V208.509H275.702V206.207H273.659V208.509H196.918V206.946H194.875V208.5H139.949L194.88 149.512V150.117H196.923V149.71L223.797 181.913C224.16 182.342 224.801 182.395 225.229 182.033C225.231 182.031 225.233 182.03 225.235 182.028L273.662 139.7V140.65H275.705V139.93L290.783 155.354C291.129 155.704 291.677 155.752 292.078 155.469L336.594 124.939L339.097 128.622L345.053 117.889L332.911 119.587L335.442 123.27L291.619 153.31L275.702 137.053ZM136.606 101.776L132.147 110.695H136.606V210.543H359.868V215.004L368.788 210.543H371.837V111.247C371.835 107.934 370.519 104.758 368.178 102.413H368.15C367.002 101.236 365.62 100.314 364.093 99.7086C362.582 99.0653 360.957 98.7329 359.316 98.7309H136.606V101.776ZM273.659 200.673V201.681H275.702V197.479H273.659V200.673ZM273.659 191.955V192.961H275.702V188.761H273.659V191.955ZM273.659 183.236V184.243H275.702V180.042H273.659V183.236ZM273.659 174.517V175.524H275.702V171.324H273.659V174.517ZM273.659 165.799V166.806H275.702V162.605H273.659V165.799ZM273.659 157.08V158.087H275.702V153.886H273.659V157.08ZM273.659 148.362V149.369H275.702V145.167H273.659V148.362ZM194.875 201.421V202.429H196.918V198.228H194.875V201.421ZM194.875 192.703V193.71H196.918V189.509H194.875V192.703ZM194.875 183.984V184.991H196.918V180.79H194.875V183.984ZM194.875 175.266V176.272H196.918V172.072H194.875V175.266ZM194.875 166.547V167.554H196.918V163.353H194.875V166.547ZM194.875 157.828V158.835H196.918V154.634H194.875V157.828ZM186.761 258.913C186.354 259.287 185.728 259.287 185.321 258.913C184.924 258.523 184.918 257.885 185.308 257.488C185.312 257.483 185.317 257.478 185.321 257.474C194.903 247.847 207.908 242.405 221.492 242.339C235.003 242.229 247.992 247.547 257.546 257.1C257.92 257.507 257.92 258.133 257.546 258.539C257.156 258.937 256.518 258.943 256.12 258.553C256.116 258.549 256.111 258.544 256.107 258.539C246.944 249.368 234.484 244.258 221.52 244.353C208.464 244.423 195.968 249.657 186.761 258.913ZM93.1286 346.733V346.761C93.0991 346.877 93.0991 347.021 93.0707 347.135L89.9343 364.661L92.7251 381.408L104.149 389.897L139.685 354.389L136.721 336.549C136.337 334.318 135.097 332.325 133.266 330.995C132.355 330.337 131.316 329.877 130.217 329.643C129.131 329.389 128.007 329.35 126.908 329.527L121.013 330.506C119.031 338.502 110.943 343.378 102.947 341.396C102.036 341.171 101.148 340.859 100.295 340.466C97.7082 339.293 95.519 337.395 93.9935 334.999L87.7776 336.035C87.8986 336.092 88.0144 336.16 88.1232 336.238L88.1811 336.296H88.2096C91.723 338.537 93.6368 342.596 93.1286 346.733ZM88.8692 370.617L87.6323 377.638L90.3947 379.681L88.8692 370.617ZM171.049 389.002L165.553 379.565C164.159 381.306 162.67 382.968 161.093 384.545C159.982 385.695 158.677 386.64 157.237 387.336H157.208C155.194 388.027 153.295 387.048 151.741 385.725C151.336 385.374 150.952 385.001 150.59 384.607L149.669 385.527L156.201 397.412C156.744 398.417 157.488 399.298 158.387 400.001C159.297 400.7 160.332 401.218 161.437 401.526C163.629 402.133 165.973 401.833 167.941 400.691C167.992 400.643 168.05 400.604 168.114 400.576C172.089 398.167 173.395 393.015 171.049 389.002ZM404.208 369.723H503.739V350.675L488.057 356.603C486.248 357.285 484.322 357.608 482.389 357.552C480.45 357.487 478.542 357.038 476.778 356.231L470.273 353.267C468.338 352.38 466.208 352.004 464.086 352.173C461.953 352.325 459.892 353.019 458.102 354.188L452.087 358.13C450.144 359.405 447.924 360.194 445.613 360.432C443.311 360.667 440.986 360.362 438.822 359.54L432.032 356.95C428.092 355.433 423.655 355.983 420.206 358.418L404.208 369.723ZM504.776 371.767H401.015C400.895 371.765 400.777 371.736 400.671 371.681C400.641 371.681 400.613 371.681 400.613 371.651H400.555L400.498 371.595H400.468L400.44 371.565H400.411V371.537H400.383V371.508H400.354V371.479H400.325V371.45H400.297V371.422H400.267V371.392H400.239V371.369H400.21V371.312H400.181V371.283H400.152V371.226H400.124V371.166H400.094V371.108H400.066V371.021H400.037V370.85H400.008V357.668C400.004 357.328 400.179 357.011 400.468 356.833L419.029 342.791C420.996 341.288 423.297 340.281 425.737 339.855C428.169 339.405 430.673 339.533 433.046 340.23L436.613 341.295C442.575 343.082 448.946 340.226 451.577 334.587L451.605 334.53C452.513 332.632 453.784 330.931 455.346 329.522C456.911 328.083 458.751 326.977 460.755 326.27C462.753 325.542 464.876 325.22 467 325.321C469.124 325.435 471.206 325.962 473.128 326.875L473.272 326.932L473.476 327.018C475.216 327.836 477.168 328.088 479.059 327.738C480.95 327.388 482.689 326.466 484.039 325.095C486.373 322.382 489.193 320.127 492.354 318.448C495.433 316.894 499.144 315.888 504.641 315.082C505.166 314.994 505.664 315.348 505.753 315.873C505.755 315.887 505.758 315.902 505.759 315.917C505.783 315.971 505.793 316.03 505.788 316.089V370.759C505.784 371.315 505.333 371.764 504.777 371.767H504.776ZM141.436 352.632L145.062 349.007L145.091 348.977L145.119 348.949C145.676 348.421 146.284 347.949 146.932 347.539L138.588 333.152C137.749 331.743 136.532 330.598 135.077 329.842C135.927 330.563 136.665 331.405 137.268 332.342C137.991 333.523 138.48 334.832 138.707 336.198L141.436 352.632ZM258.98 302.91C246.895 300.176 234.801 297.461 222.697 294.766L233.458 330.36C234.552 329.986 235.645 329.583 236.71 329.123C238.08 328.526 239.415 327.855 240.71 327.109C249.819 321.842 256.41 313.113 258.98 302.91ZM222.272 282.192V292.58L259.449 300.924C260.307 296.503 260.403 291.969 259.736 287.515C256.881 268.893 241.105 254.985 222.272 254.484V282.192ZM439.544 288.263C442.441 289.547 445.458 290.54 448.551 291.227C451.973 291.974 455.465 292.349 458.968 292.345C485.521 292.369 507.068 270.864 507.092 244.31C507.103 231.884 502.304 219.936 493.699 210.971L482.621 222.049C485.285 224.91 487.419 228.223 488.922 231.832C495.779 248.369 487.932 267.334 471.394 274.191C467.455 275.824 463.232 276.665 458.968 276.663C456.606 276.664 454.251 276.403 451.947 275.886C449.973 275.46 448.046 274.844 446.191 274.045L439.544 288.263ZM448.119 293.183C444.547 292.401 441.073 291.223 437.761 289.673H437.735V289.644C437.458 289.539 437.189 289.414 436.929 289.27C412.115 277.09 401.873 247.099 414.054 222.284C426.234 197.469 456.226 187.227 481.04 199.408C505.855 211.589 516.097 241.58 503.916 266.395C495.502 283.536 478.067 294.397 458.971 294.392C455.32 294.393 451.68 293.988 448.119 293.183ZM446.163 271.833C448.158 272.743 450.24 273.446 452.378 273.934C454.544 274.403 456.752 274.644 458.968 274.652C475.772 274.608 489.357 260.949 489.312 244.146C489.28 231.905 481.914 220.875 470.621 216.154C466.923 214.636 462.965 213.854 458.968 213.852C442.175 213.861 428.568 227.481 428.577 244.275C428.583 256.075 435.416 266.806 446.105 271.804L446.163 271.833ZM408.842 178.114H390.053C388.153 178.112 386.332 177.357 384.989 176.014C383.65 174.67 382.903 172.847 382.916 170.95V105.89C382.909 103.995 383.654 102.172 384.989 100.826H385.017C386.349 99.484 388.162 98.7289 390.053 98.7258H510.244C514.199 98.7289 517.406 101.934 517.409 105.89V170.948C517.406 174.903 514.199 178.109 510.244 178.112H408.842V178.114ZM393.22 176.1H408.844V142.636H393.22V176.1ZM417.793 176.1H433.389V137.456H417.791L417.793 176.1ZM442.338 176.1H457.96V131.558H442.336L442.338 176.1ZM466.911 176.1H482.535V124.766H466.909L466.911 176.1ZM491.456 176.1H507.081V116.998H491.454L491.456 176.1ZM511.107 59.3327C514.579 59.3398 517.389 62.1611 517.381 65.634C517.374 69.1068 514.553 71.9159 511.08 71.9088C507.607 71.9017 504.798 69.0803 504.805 65.6075C504.809 63.9448 505.471 62.3502 506.647 61.1743C507.83 59.9923 509.435 59.3286 511.107 59.3327ZM514.128 62.6134C513.327 61.8135 512.239 61.3674 511.107 61.3755C509.973 61.3623 508.884 61.8095 508.086 62.6134C506.417 64.2538 506.395 66.9369 508.036 68.6057C508.053 68.623 508.07 68.6393 508.086 68.6555C508.881 69.4676 509.97 69.9249 511.107 69.9219C512.242 69.9198 513.33 69.4635 514.128 68.6555C515.777 66.9786 515.777 64.2904 514.128 62.6134ZM491.454 59.3327C494.934 59.3378 497.751 62.1632 497.746 65.6431C497.741 69.123 494.915 71.9403 491.435 71.9352C489.77 71.9332 488.173 71.2716 486.994 70.0947C484.539 67.628 484.539 63.6409 486.994 61.1743C488.181 59.9984 489.783 59.3367 491.454 59.3327ZM494.475 62.6134C492.806 60.9171 490.079 60.8948 488.382 62.5636C486.686 64.2324 486.664 66.9603 488.333 68.6565C490.001 70.3528 492.729 70.3752 494.426 68.7063C495.249 67.8963 495.712 66.7905 495.712 65.635C495.72 64.5028 495.275 63.4153 494.475 62.6134ZM471.801 59.3327C475.281 59.3378 478.098 62.1632 478.093 65.6431C478.088 69.123 475.263 71.9403 471.783 71.9352C470.117 71.9332 468.52 71.2716 467.341 70.0947C464.886 67.628 464.886 63.6409 467.341 61.1743L467.398 61.1174C468.582 59.9801 470.158 59.3408 471.801 59.3327ZM474.822 62.6134C474.021 61.8135 472.933 61.3684 471.801 61.3755C470.695 61.3603 469.629 61.7851 468.835 62.5555L468.777 62.6134C467.12 64.2822 467.13 66.9786 468.799 68.6362C470.467 70.2938 473.164 70.2837 474.821 68.6159C476.471 66.9552 476.471 64.2751 474.821 62.6144L474.822 62.6134ZM145.7 389.492L130.822 404.368L131.369 404.775C134.049 406.681 134.992 410.224 133.614 413.21C132.427 415.861 131.013 418.402 129.384 420.807C127.6 423.31 125.615 425.209 123.542 425.38C121.88 425.418 120.237 425 118.795 424.172C117.155 423.285 115.628 422.203 114.249 420.949L100.063 435.129L101.76 440.25L103.113 439.876H103.142L159.08 423.734L153.296 411.819C152.145 409.431 151.08 406.984 150.159 404.511C149.21 402.006 148.404 399.475 147.713 396.914L145.7 389.492ZM391.175 176.1V140.593H410.856V176.1H415.748V135.442H435.43V176.1H440.322V129.514H460.003V176.1H464.871V122.752H484.548V176.1H489.439V114.983H509.122V176.1H510.24C513.071 176.08 515.357 173.781 515.361 170.95V105.89C515.368 103.069 513.087 100.776 510.266 100.769C510.257 100.769 510.249 100.769 510.24 100.769H390.053C387.232 100.761 384.939 103.041 384.931 105.863C384.931 105.872 384.931 105.881 384.931 105.89V170.948C384.935 173.779 387.221 176.079 390.053 176.098L391.175 176.1ZM487.34 354.701L503.74 348.515V317.268C500.108 317.711 496.566 318.711 493.238 320.232C490.301 321.827 487.678 323.943 485.498 326.475H485.469C483.838 328.173 481.713 329.311 479.397 329.728C477.099 330.144 474.728 329.842 472.607 328.864L472.261 328.691C470.58 327.903 468.763 327.444 466.909 327.339C465.05 327.257 463.193 327.54 461.442 328.174C457.927 329.43 455.051 332.027 453.443 335.396C453.414 335.454 453.414 335.482 453.385 335.54C451.884 338.661 449.325 341.149 446.163 342.561C442.986 343.99 439.399 344.225 436.062 343.223L432.466 342.187C430.395 341.557 428.204 341.439 426.078 341.841C423.958 342.227 421.957 343.104 420.237 344.403L402.052 358.185V368.803L419.057 356.775C423.043 353.937 428.188 353.288 432.754 355.048L439.544 357.637C443.324 359.098 447.578 358.648 450.968 356.429L457.011 352.486C459.081 351.135 461.458 350.324 463.922 350.128C466.4 349.955 468.881 350.4 471.144 351.422L477.618 354.386C479.135 355.095 480.779 355.487 482.452 355.537C484.121 355.587 485.783 355.303 487.34 354.701ZM221.836 332.317C225.104 332.259 228.352 331.795 231.505 330.936L221.29 297.092L217.405 311.566L212.139 331.247C215.315 332.002 218.572 332.361 221.836 332.317ZM492.26 209.536C473.101 191.145 442.661 191.768 424.27 210.926C415.913 219.633 411.134 231.164 410.885 243.231H426.568C427.11 225.731 441.459 211.828 458.968 211.838C467.214 211.857 475.149 214.993 481.182 220.614L492.26 209.536ZM114.081 310.823H104.174C104.641 313.157 106.686 314.84 109.066 314.851H109.124C110.461 314.856 111.745 314.327 112.692 313.383C113.393 312.683 113.874 311.792 114.076 310.823H114.081ZM109.132 308.808H115.203C115.755 308.804 116.207 309.25 116.211 309.801C116.211 309.806 116.211 309.811 116.211 309.816C116.213 313.722 113.048 316.891 109.141 316.893C109.138 316.893 109.135 316.893 109.132 316.893H109.045C106.232 316.859 103.704 315.167 102.6 312.578L102.513 312.319C102.203 311.521 102.047 310.671 102.053 309.816C102.049 309.264 102.494 308.812 103.046 308.808C103.051 308.808 103.055 308.808 103.06 308.808H109.132ZM418.17 269.704C422.897 277.316 429.667 283.448 437.708 287.4L444.355 273.185C433.779 267.822 426.963 257.126 426.569 245.274H410.885C411.057 253.926 413.572 262.369 418.165 269.704H418.17Z" fill="#0D1949"/>
<path fill-rule="evenodd" clip-rule="evenodd" d="M125.988 532.27L138.419 489.856C139.018 487.811 139.405 485.709 139.57 483.584C139.733 481.454 139.665 479.312 139.367 477.196L135.31 447.214C135.219 446.671 135.278 446.114 135.482 445.603C135.649 445.108 135.924 444.657 136.287 444.282C136.317 444.252 136.345 444.195 136.403 444.166C136.764 443.825 137.197 443.57 137.669 443.418C138.168 443.244 138.699 443.185 139.224 443.245C139.74 443.308 140.239 443.474 140.69 443.734C141.113 444.002 141.475 444.356 141.755 444.77L159.135 470.984C162.634 476.308 164.504 482.538 164.514 488.91V532.273H182.534L187.195 481.716C187.48 478.488 187.257 475.235 186.533 472.076C185.806 468.917 184.57 465.896 182.874 463.133L160.057 425.553C141.584 430.906 123.1 436.238 104.608 441.552L112.952 478.445C113.345 480.166 113.595 481.918 113.7 483.681C113.806 485.455 113.768 487.236 113.586 489.004L109.039 532.281L125.988 532.27ZM382.917 363.853V369.579H308.736V363.853H382.917ZM147.972 288.81C146.853 306.663 152.286 324.311 163.252 338.445C163.632 338.843 163.62 339.473 163.223 339.855L155.971 347.107C156.976 347.578 157.892 348.221 158.676 349.006C159.856 350.185 166.071 355.567 167.51 358.674L174.79 351.394C175.147 351.038 175.711 351.001 176.112 351.307C208.099 376.247 254.247 370.534 279.188 338.547C304.129 306.56 298.415 260.411 266.428 235.47C234.441 210.53 188.292 216.243 163.351 248.231C154.254 259.899 148.893 274.042 147.97 288.81H147.972ZM382.916 350.041V355.768H308.736V350.041H382.916ZM264.681 249.963C276.108 261.384 282.473 276.914 282.349 293.068C282.096 326.891 254.738 354.246 220.916 354.498C187.599 354.748 160.389 327.942 160.139 294.625C160.137 294.316 160.137 294.007 160.139 293.697C160.354 259.874 187.72 232.508 221.544 232.291C237.713 232.149 253.259 238.518 264.681 249.963ZM344.013 336.23V341.956H308.736V336.23H344.013ZM192.026 319.137C194.433 321.865 197.213 324.238 200.284 326.188C203.359 328.151 206.69 329.682 210.183 330.735L219.448 296.233L192.026 319.137ZM88.5227 312.663C89.3002 313.584 90.0188 314.36 90.6245 314.994L89.9049 312.289L88.5227 312.663ZM122.305 276.407L125.383 287.892C127.451 285.712 129.231 283.275 130.678 280.64C131.757 278.692 132.606 276.626 133.21 274.482C133.269 274.155 133.207 273.819 133.037 273.533C132.876 273.229 132.61 272.995 132.289 272.872C125.786 270.275 119.114 268.121 112.32 266.426C107.481 265.167 102.499 264.548 97.5 264.584C85.1271 265.131 87.0318 274.022 87.2289 274.856C87.2757 274.965 87.295 275.084 87.2858 275.202C87.2808 275.756 86.8326 276.204 86.2787 276.209C79.3147 276.209 76.4385 278.972 75.5462 282.395C74.6254 285.992 75.7189 290.337 76.6387 293.066C77.2495 294.877 77.9803 296.647 78.8269 298.36C79.4885 299.713 80.2071 301.008 80.9266 302.246C81.3667 301.958 81.8403 301.725 82.3373 301.555C83.7754 301.036 85.3294 300.72 86.797 300.317C85.5174 291.882 90.7617 283.827 98.993 281.585L121.063 275.69C121.596 275.54 122.15 275.851 122.3 276.385C122.302 276.392 122.304 276.4 122.305 276.407ZM348.299 274.68V280.376H308.736V274.68H348.299ZM382.915 260.867V266.564H308.736V260.867H382.915ZM461.095 224.956V226.597C461.09 227.127 461.488 227.576 462.016 227.632C464.082 227.833 466.02 228.726 467.514 230.167C468.789 231.605 469.45 233.486 469.356 235.404V235.519H464.12V235.029C464.212 233.724 463.715 232.447 462.766 231.547C460.641 230.129 457.871 230.129 455.746 231.547C454.787 232.44 454.288 233.723 454.393 235.029C454.393 239 457.788 241.072 461.472 243.288C465.269 245.59 469.413 248.094 469.413 253.101C469.502 255.028 468.842 256.914 467.571 258.365C466.043 259.827 464.066 260.729 461.961 260.927C461.47 261.013 461.108 261.435 461.097 261.934V263.546H456.843V261.934C456.839 261.423 456.457 260.993 455.95 260.927C453.865 260.739 451.906 259.846 450.397 258.395C449.109 256.941 448.439 255.041 448.527 253.101V251.632H453.764V253.474C453.663 254.803 454.209 256.1 455.232 256.956C457.401 258.298 460.142 258.298 462.311 256.956C463.332 256.1 463.879 254.803 463.777 253.474C463.777 249.503 460.383 247.432 456.698 245.216C452.901 242.914 448.758 240.411 448.758 235.404C448.663 233.495 449.3 231.622 450.541 230.167C452.028 228.729 453.952 227.828 456.008 227.606C456.494 227.518 456.846 227.093 456.843 226.599V224.958L461.095 224.956ZM355.264 247.029V252.755H308.736V247.029H355.264ZM526.184 55.2468C531.937 55.2142 536.626 59.8508 536.659 65.6032C536.659 65.6428 536.659 65.6825 536.659 65.7211V76.0217H108.35V65.7211C108.317 59.9697 112.952 55.2803 118.705 55.2468C118.744 55.2468 118.784 55.2468 118.824 55.2468H526.184ZM511.106 59.3334C514.578 59.3416 517.386 62.1619 517.378 65.6337C517.369 69.1055 514.549 71.9136 511.077 71.9055C507.606 71.8974 504.797 69.077 504.806 65.6052C504.81 63.9425 505.471 62.3499 506.647 61.174C507.83 59.992 509.434 59.3304 511.106 59.3334ZM491.454 59.3334C494.934 59.3385 497.751 62.1639 497.746 65.6439C497.741 69.1238 494.916 71.9411 491.436 71.936C489.77 71.934 488.172 71.2713 486.993 70.0944C484.538 67.6277 484.538 63.6407 486.993 61.174C488.18 59.9981 489.783 59.3375 491.454 59.3334ZM471.8 59.3334C475.28 59.3375 478.097 62.1629 478.093 65.6428C478.089 69.1228 475.264 71.9401 471.784 71.936C470.117 71.934 468.519 71.2713 467.34 70.0944C464.885 67.6277 464.885 63.6407 467.34 61.174L467.398 61.1161C468.582 59.9798 470.159 59.3416 471.8 59.3334Z" fill="#0D1949"/>
<path fill-rule="evenodd" clip-rule="evenodd" d="M222.577 254.49C241.288 255.142 256.89 269.009 259.733 287.513C260.399 291.967 260.303 296.502 259.445 300.923L222.272 292.578V254.481L222.577 254.49ZM194.875 145.915V146.52L138.649 206.946V110.699H143.11L138.649 101.78V100.773H359.321C360.703 100.776 362.071 101.049 363.349 101.578C364.622 102.099 365.777 102.872 366.745 103.851C368.714 105.806 369.813 108.471 369.794 111.246V208.509H368.787L359.866 204.049V208.509H275.702V206.207H273.659V208.509H196.917V206.946H194.875V208.5H139.949L194.88 149.513V150.117H196.922V149.71L223.797 181.913C224.159 182.342 224.8 182.396 225.229 182.034C225.231 182.032 225.234 182.03 225.236 182.028L273.663 139.699V140.65H275.706V139.93L290.785 155.354C291.13 155.704 291.678 155.751 292.079 155.468L336.595 124.939L339.098 128.622L345.055 117.889L332.913 119.586L335.444 123.27L291.621 153.31L275.708 137.049V136.444H273.665V136.992L224.691 179.807L196.923 146.544V145.911L194.875 145.915ZM196.917 198.227H194.875V202.429H196.917V198.227ZM275.702 197.479H273.659V201.68H275.702V197.479ZM196.917 189.509H194.875V193.713H196.917V189.509ZM275.702 188.761H273.659V192.962H275.702V188.761ZM196.917 180.79H194.875V184.991H196.917V180.79ZM275.702 180.042H273.659V184.243H275.702V180.042ZM196.917 172.072H194.875V176.273H196.917V172.072ZM510.243 100.769C513.064 100.76 515.357 103.041 515.365 105.862C515.365 105.872 515.365 105.881 515.365 105.89V170.948C515.361 173.779 513.074 176.079 510.243 176.098H509.125V114.983H489.44V176.1H484.548V122.752H464.872V176.1H460.008V129.515H440.321V176.1H435.429V135.441H415.747V176.1H410.856V140.592H391.174V176.1H390.056C387.225 176.08 384.939 173.781 384.934 170.95V105.89C384.927 103.069 387.209 100.776 390.031 100.769C390.039 100.769 390.048 100.769 390.056 100.769H510.243ZM275.702 171.323H273.659V175.521H275.702V171.323ZM196.917 163.352H194.875V167.554H196.917V163.352ZM275.702 162.604H273.659V166.806H275.702V162.604ZM196.917 154.633H194.875V158.835H196.917V154.633ZM275.702 153.885H273.659V158.087H275.702V153.885ZM275.702 145.167H273.659V149.369H275.702V145.167Z" fill="white"/>
<path d="M130.823 404.368L145.7 389.492L147.713 396.915C148.404 399.476 149.21 402.009 150.158 404.512C151.08 406.987 152.144 409.432 153.296 411.821L159.08 423.733L103.142 439.876H103.113L101.76 440.249L100.062 435.128L114.248 420.95C115.628 422.204 117.155 423.286 118.795 424.172C120.237 425 121.88 425.418 123.542 425.38C125.615 425.209 127.6 423.31 129.383 420.807C131.012 418.402 132.427 415.86 133.613 413.21C134.993 410.225 134.05 406.679 131.369 404.774L130.823 404.368Z" fill="#FFEEF1"/>
<path d="M88.117 336.23L88.175 336.287L88.2085 336.289C91.725 338.531 93.6388 342.596 93.1286 346.734V346.764C93.0991 346.879 93.0991 347.023 93.0707 347.138L89.9342 364.661L92.721 381.406L104.145 389.894L139.681 354.385L136.718 336.547C136.334 334.316 135.094 332.323 133.263 330.992C132.351 330.335 131.313 329.873 130.214 329.64C129.129 329.385 128.005 329.347 126.905 329.525L121.006 330.503C119.554 336.23 114.882 340.576 109.066 341.61C106.091 342.122 103.031 341.721 100.289 340.459C97.7021 339.287 95.5129 337.388 93.9874 334.993L87.7715 336.027C87.8924 336.084 88.0083 336.152 88.117 336.23Z" fill="#FFEEF1"/>
<path d="M222.701 294.766C234.805 297.461 246.899 300.176 258.984 302.91C256.414 313.113 249.823 321.842 240.714 327.109C239.419 327.854 238.083 328.527 236.714 329.123C235.649 329.584 234.556 329.986 233.462 330.36L222.701 294.766Z" fill="#24BAB0"/>
</svg>
