<svg width="69" height="68" viewBox="0 0 69 68" fill="none" xmlns="http://www.w3.org/2000/svg">
<circle cx="33.8165" cy="34.439" r="5.50497" fill="#EB8813"/>
<path d="M26.7383 20.6769C31.8761 25.8148 33.0818 31.2937 31.8761 32.4994C30.6705 33.705 25.7201 31.8484 21.0366 27.1648C16.353 22.4813 5.45346 14.2399 9.82989 9.86347C14.2063 5.48704 22.0547 15.9934 26.7383 20.6769Z" fill="#EB8813"/>
<path d="M19.6023 29.9887C26.8683 29.9887 31.5951 33.0104 31.5951 34.7154C31.5951 36.4205 26.7818 38.6081 20.1582 38.6081C13.5347 38.6081 0 40.4877 0 34.2985C0 28.1093 12.9788 29.9887 19.6023 29.9887Z" fill="#EB8813"/>
<path d="M48.9548 38.6085C41.6888 38.6085 36.9621 35.5868 36.9621 33.8817C36.9621 32.1767 41.7753 29.9891 48.3989 29.9891C55.0224 29.9891 68.5571 28.1095 68.5571 34.2987C68.5571 40.4879 55.5784 38.6085 48.9548 38.6085Z" fill="#EB8813"/>
<path d="M20.6432 41.1426C25.7811 36.0047 31.26 34.7991 32.4657 36.0047C33.6713 37.2104 31.8147 42.1607 27.1312 46.8443C22.4476 51.5278 14.2062 62.4274 9.82978 58.051C5.45335 53.6745 15.9597 45.8261 20.6432 41.1426Z" fill="#EB8813"/>
<path d="M47.7948 26.771C42.6569 31.9089 37.178 33.1145 35.9723 31.9089C34.7666 30.7032 36.6233 25.7528 41.3068 21.0693C45.9904 16.3858 54.2318 5.48618 58.6082 9.8626C62.9846 14.239 52.4783 22.0875 47.7948 26.771Z" fill="#EB8813"/>
<path d="M41.6997 47.2376C36.5618 42.0998 35.3562 36.6208 36.5618 35.4152C37.7675 34.2095 42.7179 36.0662 47.4014 40.7497C52.085 45.4333 62.9845 53.6747 58.6081 58.0511C54.2317 62.4275 46.3832 51.9212 41.6997 47.2376Z" fill="#EB8813"/>
<path d="M37.9849 19.8318C37.9849 27.0978 34.9632 31.8246 33.2582 31.8246C31.5531 31.8246 29.3656 27.0113 29.3656 20.3877C29.3656 13.7642 27.4859 0.229492 33.6751 0.229492C39.8643 0.229492 37.9849 13.2083 37.9849 19.8318Z" fill="#EB8813"/>
<path d="M29.3661 48.3977C29.3661 41.1317 32.3878 36.4049 34.0929 36.4049C35.7979 36.4049 37.9855 41.2182 37.9855 47.8418C37.9855 54.4653 39.8651 68 33.6759 68C27.4867 68 29.3661 55.0212 29.3661 48.3977Z" fill="#EB8813"/>
</svg>
