<svg width="202" height="115" viewBox="0 0 202 115" fill="none" xmlns="http://www.w3.org/2000/svg">
<circle cx="33.8165" cy="52.2096" r="5.50497" fill="#F54F59"/>
<path d="M26.7383 38.4474C31.8761 43.5853 33.0818 49.0642 31.8761 50.2699C30.6705 51.4755 25.7201 49.6189 21.0366 44.9353C16.353 40.2518 5.45346 32.0104 9.82989 27.634C14.2063 23.2576 22.0547 33.7639 26.7383 38.4474Z" fill="#F54F59"/>
<path d="M19.6023 47.7592C26.8683 47.7592 31.5951 50.7809 31.5951 52.486C31.5951 54.191 26.7818 56.3786 20.1582 56.3786C13.5347 56.3786 0 58.2582 0 52.069C0 45.8798 12.9788 47.7592 19.6023 47.7592Z" fill="#F54F59"/>
<path d="M48.9548 56.379C41.6888 56.379 36.9621 53.3573 36.9621 51.6522C36.9621 49.9472 41.7753 47.7596 48.3989 47.7596C55.0224 47.7596 68.5571 45.88 68.5571 52.0692C68.5571 58.2584 55.5784 56.379 48.9548 56.379Z" fill="#F54F59"/>
<path d="M20.6432 58.9131C25.7811 53.7752 31.26 52.5696 32.4657 53.7752C33.6713 54.9809 31.8147 59.9312 27.1312 64.6148C22.4476 69.2983 14.2062 80.1979 9.82978 75.8215C5.45335 71.4451 15.9597 63.5966 20.6432 58.9131Z" fill="#F54F59"/>
<path d="M47.7948 44.5415C42.6569 49.6794 37.178 50.885 35.9723 49.6794C34.7666 48.4737 36.6233 43.5234 41.3068 38.8398C45.9904 34.1563 54.2318 23.2567 58.6082 27.6331C62.9846 32.0095 52.4783 39.858 47.7948 44.5415Z" fill="#F54F59"/>
<path d="M41.6997 65.0082C36.5618 59.8703 35.3562 54.3913 36.5618 53.1857C37.7675 51.98 42.7179 53.8367 47.4014 58.5202C52.085 63.2038 62.9845 71.4452 58.6081 75.8216C54.2317 80.198 46.3832 69.6917 41.6997 65.0082Z" fill="#F54F59"/>
<path d="M37.9849 37.6023C37.9849 44.8683 34.9632 49.5951 33.2582 49.5951C31.5531 49.5951 29.3656 44.7818 29.3656 38.1582C29.3656 31.5347 27.4859 18 33.6751 18C39.8643 18 37.9849 30.9788 37.9849 37.6023Z" fill="#F54F59"/>
<path d="M29.3661 66.1682C29.3661 58.9022 32.3878 54.1754 34.0929 54.1754C35.7979 54.1754 37.9855 58.9887 37.9855 65.6123C37.9855 72.2358 39.8651 85.7705 33.6759 85.7705C27.4867 85.7705 29.3661 72.7917 29.3661 66.1682Z" fill="#F54F59"/>
<path d="M69.9219 46.8458C70.4624 46.7322 70.8085 46.202 70.695 45.6616C70.5815 45.1211 70.0513 44.775 69.5108 44.8885L69.9219 46.8458ZM74.3824 44.0379C73.8357 44.116 73.4558 44.6226 73.534 45.1693C73.6122 45.7161 74.1187 46.0959 74.6655 46.0177L74.3824 44.0379ZM79.4536 45.459C80.0036 45.4082 80.4082 44.9211 80.3573 44.3712C80.3065 43.8213 79.8195 43.4167 79.2695 43.4675L79.4536 45.459ZM84.1718 43.1188C83.6203 43.147 83.1959 43.6169 83.224 44.1684C83.2521 44.72 83.7221 45.1444 84.2736 45.1163L84.1718 43.1188ZM89.1269 44.9584C89.6791 44.9501 90.1202 44.4958 90.112 43.9436C90.1038 43.3914 89.6494 42.9504 89.0972 42.9586L89.1269 44.9584ZM93.9962 42.9664C93.444 42.9567 92.9885 43.3964 92.9788 43.9486C92.9691 44.5008 93.4089 44.9564 93.9611 44.9661L93.9962 42.9664ZM98.8144 45.1256C99.3661 45.152 99.8347 44.7262 99.8611 44.1745C99.8875 43.6229 99.4617 43.1542 98.91 43.1279L98.8144 45.1256ZM103.804 43.4328C103.253 43.3906 102.772 43.8029 102.73 44.3535C102.688 44.9042 103.1 45.3848 103.651 45.427L103.804 43.4328ZM108.481 45.8646C109.03 45.922 109.522 45.5232 109.579 44.974C109.637 44.4247 109.238 43.9328 108.689 43.8754L108.481 45.8646ZM113.565 44.4522C113.018 44.38 112.515 44.7652 112.443 45.3128C112.371 45.8603 112.756 46.3628 113.303 46.435L113.565 44.4522ZM118.104 47.1346C118.649 47.2215 119.162 46.8499 119.249 46.3045C119.336 45.7591 118.964 45.2465 118.419 45.1595L118.104 47.1346ZM123.25 45.9963C122.707 45.8947 122.184 46.2524 122.083 46.7953C121.981 47.3382 122.339 47.8606 122.882 47.9621L123.25 45.9963ZM127.638 48.9186C128.178 49.0348 128.71 48.6913 128.826 48.1514C128.943 47.6115 128.599 47.0796 128.059 46.9634L127.638 48.9186ZM132.843 48.0617C132.306 47.9307 131.765 48.2594 131.634 48.796C131.503 49.3325 131.832 49.8736 132.368 50.0046L132.843 48.0617ZM137.066 51.2214C137.599 51.3674 138.149 51.0539 138.295 50.5213C138.441 49.9886 138.128 49.4385 137.595 49.2925L137.066 51.2214ZM142.307 50.6566C141.778 50.4954 141.219 50.7929 141.058 51.3211C140.897 51.8493 141.194 52.4083 141.723 52.5695L142.307 50.6566ZM146.338 54.0531C146.861 54.2299 147.429 53.9491 147.606 53.4259C147.783 52.9027 147.502 52.3352 146.979 52.1584L146.338 54.0531ZM151.605 53.8008C151.087 53.608 150.511 53.8713 150.319 54.3888C150.126 54.9064 150.389 55.4822 150.907 55.675L151.605 53.8008ZM155.421 57.4385C155.933 57.6477 156.517 57.4029 156.726 56.8917C156.935 56.3806 156.69 55.7967 156.179 55.5875L155.421 57.4385ZM160.694 57.5223C160.19 57.2963 159.598 57.5217 159.372 58.0256C159.146 58.5296 159.372 59.1213 159.876 59.3472L160.694 57.5223ZM164.261 61.4048C164.757 61.648 165.356 61.4432 165.6 60.9474C165.843 60.4515 165.638 59.8524 165.142 59.6092L164.261 61.4048ZM169.514 61.8518C169.028 61.5909 168.422 61.7739 168.161 62.2607C167.9 62.7475 168.083 63.3536 168.57 63.6145L169.514 61.8518ZM172.792 65.9807C173.269 66.2598 173.881 66.0997 174.16 65.6231C174.439 65.1465 174.279 64.534 173.803 64.2549L172.792 65.9807ZM177.997 66.8222C177.532 66.5246 176.913 66.6605 176.616 67.1257C176.318 67.5909 176.454 68.2093 176.919 68.507L177.997 66.8222ZM67.5916 47.385C68.3353 47.1958 69.1126 47.0158 69.9219 46.8458L69.5108 44.8885C68.6758 45.0639 67.871 45.2502 67.0983 45.4468L67.5916 47.385ZM74.6655 46.0177C76.1859 45.8004 77.7843 45.6133 79.4536 45.459L79.2695 43.4675C77.5694 43.6246 75.9379 43.8155 74.3824 44.0379L74.6655 46.0177ZM84.2736 45.1163C85.8444 45.0362 87.4638 44.983 89.1269 44.9584L89.0972 42.9586C87.4108 42.9836 85.7674 43.0375 84.1718 43.1188L84.2736 45.1163ZM93.9611 44.9661C95.5479 44.994 97.1669 45.0467 98.8144 45.1256L98.91 43.1279C97.2426 43.0481 95.6034 42.9946 93.9962 42.9664L93.9611 44.9661ZM103.651 45.427C105.24 45.5487 106.851 45.6943 108.481 45.8646L108.689 43.8754C107.041 43.7032 105.411 43.556 103.804 43.4328L103.651 45.427ZM113.303 46.435C114.89 46.6445 116.491 46.8774 118.104 47.1346L118.419 45.1595C116.788 44.8996 115.17 44.6641 113.565 44.4522L113.303 46.435ZM122.882 47.9621C124.46 48.2573 126.046 48.5759 127.638 48.9186L128.059 46.9634C126.449 46.6169 124.845 46.2947 123.25 45.9963L122.882 47.9621ZM132.368 50.0046C133.932 50.3863 135.499 50.7917 137.066 51.2214L137.595 49.2925C136.009 48.8578 134.424 48.4477 132.843 48.0617L132.368 50.0046ZM141.723 52.5695C143.263 53.0397 144.802 53.534 146.338 54.0531L146.979 52.1584C145.423 51.6328 143.865 51.1324 142.307 50.6566L141.723 52.5695ZM150.907 55.675C152.417 56.2378 153.923 56.8254 155.421 57.4385L156.179 55.5875C154.66 54.9662 153.135 54.3708 151.605 53.8008L150.907 55.675ZM159.876 59.3472C161.347 60.0071 162.81 60.6928 164.261 61.4048L165.142 59.6092C163.67 58.8868 162.186 58.1914 160.694 57.5223L159.876 59.3472ZM168.57 63.6145C169.991 64.3763 171.399 65.1649 172.792 65.9807L173.803 64.2549C172.387 63.426 170.957 62.6252 169.514 61.8518L168.57 63.6145ZM176.919 68.507C177.598 68.9415 178.273 69.3829 178.944 69.8314L180.056 68.169C179.374 67.7129 178.687 67.264 177.997 66.8222L176.919 68.507Z" fill="black"/>
<circle cx="192.5" cy="83.5" r="9.5" fill="#3F79CD"/>
</svg>
