<svg width="28" height="28" viewBox="0 0 28 28" fill="none" xmlns="http://www.w3.org/2000/svg">
<path d="M19.1913 6.37842H20.7219C23.6741 6.37842 26.0674 8.77166 26.0674 11.7239V12.0381C26.0674 14.9903 23.6741 17.3835 20.7219 17.3835H19.1913V18.9924C19.1913 20.3549 18.0867 21.4595 16.7242 21.4595H5.07504C3.71248 21.4595 2.60791 20.3549 2.60791 18.9924V7.61198C2.60791 6.9307 3.1602 6.37842 3.84148 6.37842H19.1913ZM19.1913 9.2316V14.5304H20.5867C22.0499 14.5304 23.2361 13.3442 23.2361 11.881C23.2361 10.4178 22.0499 9.2316 20.5867 9.2316H19.1913Z" fill="white" stroke="black"/>
<path d="M10.5676 11.4027C10.9487 10.2875 11.8519 9.72998 13.2771 9.72998C15.4151 9.72998 16.2076 12.3898 15.087 14.1286C14.3399 15.2879 12.8334 16.7541 10.5676 18.5273C8.30168 16.7541 6.7952 15.2879 6.04811 14.1286C4.92747 12.3898 5.72005 9.72998 7.85797 9.72998C9.28324 9.72998 10.1864 10.2875 10.5676 11.4027Z" fill="#FF5E5B"/>
</svg>
