<svg width="461" height="164" viewBox="0 0 461 164" fill="none" xmlns="http://www.w3.org/2000/svg">
<circle cx="340" cy="89" r="8" fill="#CFE34C"/>
<path d="M3.55176 107V72.92H26.4478V78.728H10.1758V87.512H23.7118V92.888H10.1758V107H3.55176Z" fill="black"/>
<path d="M30.4903 107V81.848H36.9223V107H30.4903ZM30.4903 78.344V71.96H36.9223V78.344H30.4903Z" fill="black"/>
<path d="M66.1006 107H59.6686V92.888C59.6686 90.872 59.3166 89.4 58.6126 88.472C57.9086 87.544 56.9326 87.08 55.6846 87.08C54.8206 87.08 53.9406 87.304 53.0446 87.752C52.1806 88.2 51.3966 88.824 50.6926 89.624C49.9886 90.392 49.4766 91.288 49.1566 92.312V107H42.7246V81.848H48.5326V86.504C49.1726 85.416 49.9886 84.504 50.9806 83.768C51.9726 83 53.1086 82.424 54.3886 82.04C55.7006 81.624 57.0766 81.416 58.5166 81.416C60.0846 81.416 61.3646 81.704 62.3566 82.28C63.3806 82.824 64.1486 83.576 64.6606 84.536C65.2046 85.464 65.5726 86.52 65.7646 87.704C65.9886 88.888 66.1006 90.088 66.1006 91.304V107Z" fill="black"/>
<path d="M70.1574 94.424C70.1574 91.992 70.6374 89.8 71.5974 87.848C72.5574 85.864 73.8854 84.296 75.5814 83.144C77.2774 81.992 79.2134 81.416 81.3894 81.416C83.2454 81.416 84.9094 81.88 86.3814 82.808C87.8854 83.704 89.0534 84.856 89.8854 86.264V71.96H96.3174V99.8C96.3174 100.472 96.4294 100.952 96.6534 101.24C96.8774 101.528 97.2614 101.704 97.8054 101.768V107C96.6854 107.224 95.7734 107.336 95.0694 107.336C93.9174 107.336 92.9574 107.048 92.1894 106.472C91.4534 105.896 91.0374 105.144 90.9414 104.216L90.8454 102.632C89.9174 104.2 88.6534 105.4 87.0534 106.232C85.4854 107.064 83.8374 107.48 82.1094 107.48C80.3814 107.48 78.7814 107.144 77.3094 106.472C75.8694 105.8 74.6054 104.872 73.5174 103.688C72.4614 102.504 71.6294 101.128 71.0214 99.56C70.4454 97.96 70.1574 96.248 70.1574 94.424ZM89.8854 97.784V91.784C89.5654 90.856 89.0534 90.024 88.3494 89.288C87.6454 88.552 86.8614 87.976 85.9974 87.56C85.1334 87.112 84.2694 86.888 83.4054 86.888C82.4134 86.888 81.5174 87.096 80.7174 87.512C79.9174 87.928 79.2134 88.488 78.6054 89.192C78.0294 89.896 77.5814 90.712 77.2614 91.64C76.9734 92.568 76.8294 93.544 76.8294 94.568C76.8294 95.592 76.9894 96.568 77.3094 97.496C77.6614 98.392 78.1574 99.176 78.7974 99.848C79.4374 100.52 80.1734 101.048 81.0054 101.432C81.8694 101.816 82.7974 102.008 83.7894 102.008C84.3974 102.008 85.0054 101.912 85.6134 101.72C86.2534 101.496 86.8454 101.208 87.3894 100.856C87.9654 100.472 88.4614 100.024 88.8774 99.512C89.3254 98.968 89.6614 98.392 89.8854 97.784Z" fill="black"/>
<path d="M138.868 78.728H127.972V107H121.396V78.728H110.5V72.92H138.868V78.728Z" fill="black"/>
<path d="M165.851 107H159.419V92.888C159.419 90.936 159.035 89.48 158.267 88.52C157.531 87.56 156.507 87.08 155.195 87.08C154.427 87.08 153.611 87.304 152.747 87.752C151.883 88.2 151.099 88.824 150.395 89.624C149.723 90.392 149.227 91.288 148.907 92.312V107H142.475V71.96H148.907V86.504C149.835 84.904 151.099 83.656 152.699 82.76C154.299 81.864 156.043 81.416 157.931 81.416C159.563 81.416 160.891 81.704 161.915 82.28C162.939 82.824 163.739 83.576 164.315 84.536C164.891 85.464 165.291 86.52 165.515 87.704C165.739 88.856 165.851 90.056 165.851 91.304V107Z" fill="black"/>
<path d="M183.107 107.48C181.091 107.48 179.267 107.144 177.635 106.472C176.003 105.768 174.611 104.824 173.459 103.64C172.307 102.424 171.411 101.048 170.771 99.512C170.163 97.944 169.859 96.296 169.859 94.568C169.859 92.168 170.387 89.976 171.443 87.992C172.531 86.008 174.067 84.424 176.051 83.24C178.067 82.024 180.435 81.416 183.155 81.416C185.907 81.416 188.259 82.024 190.211 83.24C192.163 84.424 193.651 86.008 194.675 87.992C195.731 89.944 196.259 92.056 196.259 94.328C196.259 94.712 196.243 95.112 196.211 95.528C196.179 95.912 196.147 96.232 196.115 96.488H176.675C176.803 97.768 177.171 98.888 177.779 99.848C178.419 100.808 179.219 101.544 180.179 102.056C181.171 102.536 182.227 102.776 183.347 102.776C184.627 102.776 185.827 102.472 186.947 101.864C188.099 101.224 188.883 100.392 189.299 99.368L194.819 100.904C194.211 102.184 193.331 103.32 192.179 104.312C191.059 105.304 189.731 106.088 188.195 106.664C186.659 107.208 184.963 107.48 183.107 107.48ZM176.531 92.408H189.683C189.555 91.128 189.187 90.024 188.579 89.096C188.003 88.136 187.235 87.4 186.275 86.888C185.315 86.344 184.243 86.072 183.059 86.072C181.907 86.072 180.851 86.344 179.891 86.888C178.963 87.4 178.195 88.136 177.587 89.096C177.011 90.024 176.659 91.128 176.531 92.408Z" fill="black"/>
<path d="M239.789 98.216C239.789 100.136 239.293 101.752 238.301 103.064C237.309 104.344 235.965 105.32 234.269 105.992C232.605 106.664 230.781 107 228.797 107H212.333V72.92H230.573C232.173 72.92 233.549 73.352 234.701 74.216C235.885 75.048 236.781 76.136 237.389 77.48C238.029 78.792 238.349 80.168 238.349 81.608C238.349 83.24 237.933 84.792 237.101 86.264C236.269 87.736 235.053 88.824 233.453 89.528C235.405 90.104 236.941 91.144 238.061 92.648C239.213 94.152 239.789 96.008 239.789 98.216ZM233.117 96.968C233.117 96.104 232.941 95.336 232.589 94.664C232.237 93.96 231.757 93.416 231.149 93.032C230.573 92.616 229.901 92.408 229.133 92.408H218.957V101.384H228.797C229.597 101.384 230.317 101.192 230.957 100.808C231.629 100.392 232.157 99.848 232.541 99.176C232.925 98.504 233.117 97.768 233.117 96.968ZM218.957 78.584V87.176H227.789C228.525 87.176 229.197 87 229.805 86.648C230.413 86.296 230.893 85.8 231.245 85.16C231.629 84.52 231.821 83.752 231.821 82.856C231.821 81.992 231.645 81.24 231.293 80.6C230.973 79.96 230.525 79.464 229.949 79.112C229.405 78.76 228.781 78.584 228.077 78.584H218.957Z" fill="black"/>
<path d="M255.998 107.48C253.982 107.48 252.158 107.144 250.526 106.472C248.894 105.768 247.502 104.824 246.35 103.64C245.198 102.424 244.302 101.048 243.662 99.512C243.054 97.944 242.75 96.296 242.75 94.568C242.75 92.168 243.278 89.976 244.334 87.992C245.422 86.008 246.958 84.424 248.942 83.24C250.958 82.024 253.326 81.416 256.046 81.416C258.798 81.416 261.15 82.024 263.102 83.24C265.054 84.424 266.542 86.008 267.566 87.992C268.622 89.944 269.15 92.056 269.15 94.328C269.15 94.712 269.134 95.112 269.102 95.528C269.07 95.912 269.038 96.232 269.006 96.488H249.566C249.694 97.768 250.062 98.888 250.67 99.848C251.31 100.808 252.11 101.544 253.07 102.056C254.062 102.536 255.118 102.776 256.238 102.776C257.518 102.776 258.718 102.472 259.838 101.864C260.99 101.224 261.774 100.392 262.19 99.368L267.71 100.904C267.102 102.184 266.222 103.32 265.07 104.312C263.95 105.304 262.622 106.088 261.086 106.664C259.55 107.208 257.854 107.48 255.998 107.48ZM249.422 92.408H262.574C262.446 91.128 262.078 90.024 261.47 89.096C260.894 88.136 260.126 87.4 259.166 86.888C258.206 86.344 257.134 86.072 255.95 86.072C254.798 86.072 253.742 86.344 252.782 86.888C251.854 87.4 251.086 88.136 250.478 89.096C249.902 90.024 249.55 91.128 249.422 92.408Z" fill="black"/>
<path d="M282.332 107.48C280.188 107.48 278.14 107.128 276.188 106.424C274.236 105.72 272.556 104.68 271.148 103.304L273.452 99.128C274.956 100.344 276.428 101.24 277.868 101.816C279.34 102.392 280.748 102.68 282.092 102.68C283.34 102.68 284.332 102.456 285.068 102.008C285.836 101.56 286.22 100.888 286.22 99.992C286.22 99.384 286.012 98.92 285.596 98.6C285.18 98.248 284.572 97.944 283.772 97.688C283.004 97.432 282.06 97.144 280.94 96.824C279.084 96.216 277.532 95.624 276.284 95.048C275.036 94.472 274.092 93.752 273.452 92.888C272.844 91.992 272.54 90.856 272.54 89.48C272.54 87.816 272.956 86.392 273.788 85.208C274.652 83.992 275.836 83.048 277.34 82.376C278.876 81.704 280.668 81.368 282.716 81.368C284.508 81.368 286.204 81.656 287.804 82.232C289.404 82.776 290.86 83.672 292.172 84.92L289.58 89C288.3 88.008 287.084 87.288 285.932 86.84C284.78 86.36 283.612 86.12 282.428 86.12C281.756 86.12 281.116 86.2 280.508 86.36C279.932 86.52 279.452 86.792 279.068 87.176C278.716 87.528 278.54 88.04 278.54 88.712C278.54 89.32 278.7 89.8 279.02 90.152C279.372 90.472 279.884 90.76 280.556 91.016C281.26 91.272 282.108 91.56 283.1 91.88C285.116 92.456 286.812 93.048 288.188 93.656C289.596 94.264 290.652 95.016 291.356 95.912C292.06 96.776 292.412 97.976 292.412 99.512C292.412 102.008 291.5 103.96 289.676 105.368C287.852 106.776 285.404 107.48 282.332 107.48Z" fill="black"/>
<path d="M311.719 105.704C311.175 105.928 310.519 106.184 309.751 106.472C308.983 106.76 308.151 106.984 307.255 107.144C306.391 107.336 305.511 107.432 304.615 107.432C303.431 107.432 302.342 107.224 301.35 106.808C300.358 106.392 299.559 105.736 298.951 104.84C298.375 103.912 298.087 102.712 298.087 101.24V86.792H294.775V81.848H298.087V73.688H304.518V81.848H309.799V86.792H304.518V99.08C304.55 99.944 304.79 100.568 305.238 100.952C305.686 101.336 306.247 101.528 306.919 101.528C307.591 101.528 308.247 101.416 308.887 101.192C309.527 100.968 310.039 100.776 310.423 100.616L311.719 105.704Z" fill="black"/>
<path d="M3.55176 163V128.92H17.9998C19.5678 128.92 21.0078 129.24 22.3198 129.88C23.6318 130.52 24.7678 131.384 25.7278 132.472C26.7198 133.56 27.4878 134.776 28.0318 136.12C28.5758 137.464 28.8478 138.84 28.8478 140.248C28.8478 142.168 28.3998 143.992 27.5038 145.72C26.6078 147.448 25.3758 148.856 23.8078 149.944C22.2398 151.032 20.3838 151.576 18.2398 151.576H10.1758V163H3.55176ZM10.1758 145.768H17.8558C18.6558 145.768 19.3758 145.544 20.0158 145.096C20.6558 144.648 21.1678 144.008 21.5518 143.176C21.9358 142.312 22.1278 141.336 22.1278 140.248C22.1278 139.064 21.9038 138.056 21.4558 137.224C21.0398 136.392 20.4798 135.768 19.7758 135.352C19.1038 134.936 18.3678 134.728 17.5678 134.728H10.1758V145.768Z" fill="black"/>
<path d="M43.9344 163.48C41.8864 163.48 40.0464 163.144 38.4144 162.472C36.7824 161.768 35.3904 160.808 34.2384 159.592C33.1184 158.376 32.2544 156.984 31.6464 155.416C31.0384 153.848 30.7344 152.2 30.7344 150.472C30.7344 148.712 31.0384 147.048 31.6464 145.48C32.2544 143.912 33.1184 142.52 34.2384 141.304C35.3904 140.088 36.7824 139.144 38.4144 138.472C40.0464 137.768 41.8864 137.416 43.9344 137.416C45.9824 137.416 47.8064 137.768 49.4064 138.472C51.0384 139.144 52.4304 140.088 53.5824 141.304C54.7344 142.52 55.5984 143.912 56.1744 145.48C56.7824 147.048 57.0864 148.712 57.0864 150.472C57.0864 152.2 56.7824 153.848 56.1744 155.416C55.5984 156.984 54.7344 158.376 53.5824 159.592C52.4624 160.808 51.0864 161.768 49.4544 162.472C47.8224 163.144 45.9824 163.48 43.9344 163.48ZM37.3584 150.472C37.3584 151.944 37.6464 153.256 38.2224 154.408C38.7984 155.528 39.5824 156.408 40.5744 157.048C41.5664 157.688 42.6864 158.008 43.9344 158.008C45.1504 158.008 46.2544 157.688 47.2464 157.048C48.2384 156.376 49.0224 155.48 49.5984 154.36C50.2064 153.208 50.5104 151.896 50.5104 150.424C50.5104 148.984 50.2064 147.688 49.5984 146.536C49.0224 145.384 48.2384 144.488 47.2464 143.848C46.2544 143.208 45.1504 142.888 43.9344 142.888C42.6864 142.888 41.5664 143.224 40.5744 143.896C39.5824 144.536 38.7984 145.432 38.2224 146.584C37.6464 147.704 37.3584 149 37.3584 150.472Z" fill="black"/>
<path d="M70.6918 163.48C68.5478 163.48 66.4998 163.128 64.5478 162.424C62.5958 161.72 60.9158 160.68 59.5078 159.304L61.8118 155.128C63.3158 156.344 64.7878 157.24 66.2278 157.816C67.6998 158.392 69.1078 158.68 70.4518 158.68C71.6998 158.68 72.6918 158.456 73.4278 158.008C74.1958 157.56 74.5798 156.888 74.5798 155.992C74.5798 155.384 74.3718 154.92 73.9558 154.6C73.5398 154.248 72.9318 153.944 72.1318 153.688C71.3638 153.432 70.4198 153.144 69.2998 152.824C67.4438 152.216 65.8918 151.624 64.6438 151.048C63.3958 150.472 62.4518 149.752 61.8118 148.888C61.2038 147.992 60.8998 146.856 60.8998 145.48C60.8998 143.816 61.3158 142.392 62.1478 141.208C63.0118 139.992 64.1958 139.048 65.6998 138.376C67.2358 137.704 69.0278 137.368 71.0758 137.368C72.8678 137.368 74.5638 137.656 76.1638 138.232C77.7638 138.776 79.2198 139.672 80.5318 140.92L77.9398 145C76.6598 144.008 75.4438 143.288 74.2918 142.84C73.1398 142.36 71.9718 142.12 70.7878 142.12C70.1158 142.12 69.4758 142.2 68.8678 142.36C68.2918 142.52 67.8118 142.792 67.4278 143.176C67.0758 143.528 66.8998 144.04 66.8998 144.712C66.8998 145.32 67.0598 145.8 67.3798 146.152C67.7318 146.472 68.2438 146.76 68.9158 147.016C69.6198 147.272 70.4678 147.56 71.4598 147.88C73.4758 148.456 75.1718 149.048 76.5478 149.656C77.9558 150.264 79.0118 151.016 79.7158 151.912C80.4198 152.776 80.7718 153.976 80.7718 155.512C80.7718 158.008 79.8598 159.96 78.0358 161.368C76.2118 162.776 73.7638 163.48 70.6918 163.48Z" fill="black"/>
<path d="M94.4105 163.48C92.2665 163.48 90.2185 163.128 88.2665 162.424C86.3145 161.72 84.6345 160.68 83.2265 159.304L85.5305 155.128C87.0345 156.344 88.5065 157.24 89.9465 157.816C91.4185 158.392 92.8265 158.68 94.1705 158.68C95.4185 158.68 96.4105 158.456 97.1465 158.008C97.9145 157.56 98.2985 156.888 98.2985 155.992C98.2985 155.384 98.0905 154.92 97.6745 154.6C97.2585 154.248 96.6505 153.944 95.8505 153.688C95.0825 153.432 94.1385 153.144 93.0185 152.824C91.1625 152.216 89.6105 151.624 88.3625 151.048C87.1145 150.472 86.1705 149.752 85.5305 148.888C84.9225 147.992 84.6185 146.856 84.6185 145.48C84.6185 143.816 85.0345 142.392 85.8665 141.208C86.7305 139.992 87.9145 139.048 89.4185 138.376C90.9545 137.704 92.7465 137.368 94.7945 137.368C96.5865 137.368 98.2825 137.656 99.8825 138.232C101.483 138.776 102.939 139.672 104.251 140.92L101.659 145C100.379 144.008 99.1625 143.288 98.0105 142.84C96.8585 142.36 95.6905 142.12 94.5065 142.12C93.8345 142.12 93.1945 142.2 92.5865 142.36C92.0105 142.52 91.5305 142.792 91.1465 143.176C90.7945 143.528 90.6185 144.04 90.6185 144.712C90.6185 145.32 90.7785 145.8 91.0985 146.152C91.4505 146.472 91.9625 146.76 92.6345 147.016C93.3385 147.272 94.1865 147.56 95.1785 147.88C97.1945 148.456 98.8905 149.048 100.267 149.656C101.675 150.264 102.731 151.016 103.435 151.912C104.139 152.776 104.491 153.976 104.491 155.512C104.491 158.008 103.579 159.96 101.755 161.368C99.9305 162.776 97.4825 163.48 94.4105 163.48Z" fill="black"/>
<path d="M108.865 163V137.848H115.297V163H108.865ZM108.865 134.344V127.96H115.297V134.344H108.865Z" fill="black"/>
<path d="M135.404 163.48C133.484 163.48 131.772 163.048 130.268 162.184C128.764 161.32 127.58 160.136 126.716 158.632V163H121.1V127.96H127.532V142.264C128.428 140.76 129.596 139.576 131.036 138.712C132.508 137.848 134.22 137.416 136.172 137.416C137.804 137.416 139.292 137.768 140.636 138.472C141.98 139.144 143.132 140.088 144.092 141.304C145.084 142.52 145.836 143.912 146.348 145.48C146.892 147.048 147.164 148.728 147.164 150.52C147.164 152.312 146.86 153.992 146.252 155.56C145.676 157.128 144.86 158.52 143.804 159.736C142.748 160.92 141.5 161.848 140.06 162.52C138.652 163.16 137.1 163.48 135.404 163.48ZM133.628 158.008C134.652 158.008 135.58 157.816 136.412 157.432C137.276 157.016 138.012 156.472 138.62 155.8C139.26 155.128 139.74 154.344 140.06 153.448C140.412 152.52 140.588 151.56 140.588 150.568C140.588 149.192 140.3 147.928 139.724 146.776C139.18 145.592 138.412 144.648 137.42 143.944C136.46 143.24 135.324 142.888 134.012 142.888C133.084 142.888 132.188 143.112 131.324 143.56C130.492 143.976 129.74 144.552 129.068 145.288C128.428 146.024 127.916 146.856 127.532 147.784V153.784C127.724 154.424 128.028 155 128.444 155.512C128.892 156.024 129.404 156.472 129.98 156.856C130.556 157.208 131.148 157.496 131.756 157.72C132.396 157.912 133.02 158.008 133.628 158.008Z" fill="black"/>
<path d="M151.474 127.96H157.906V154.936C157.906 156.088 158.098 156.872 158.482 157.288C158.866 157.672 159.394 157.864 160.066 157.864C160.578 157.864 161.106 157.8 161.65 157.672C162.194 157.544 162.674 157.384 163.09 157.192L163.954 162.088C163.09 162.504 162.082 162.824 160.93 163.048C159.778 163.272 158.738 163.384 157.81 163.384C155.794 163.384 154.226 162.856 153.106 161.8C152.018 160.712 151.474 159.176 151.474 157.192V127.96Z" fill="black"/>
<path d="M178.42 163.48C176.404 163.48 174.58 163.144 172.948 162.472C171.316 161.768 169.924 160.824 168.772 159.64C167.62 158.424 166.724 157.048 166.084 155.512C165.476 153.944 165.172 152.296 165.172 150.568C165.172 148.168 165.7 145.976 166.756 143.992C167.844 142.008 169.38 140.424 171.364 139.24C173.38 138.024 175.748 137.416 178.468 137.416C181.22 137.416 183.572 138.024 185.524 139.24C187.476 140.424 188.964 142.008 189.988 143.992C191.044 145.944 191.572 148.056 191.572 150.328C191.572 150.712 191.556 151.112 191.524 151.528C191.492 151.912 191.46 152.232 191.428 152.488H171.988C172.116 153.768 172.484 154.888 173.092 155.848C173.732 156.808 174.532 157.544 175.492 158.056C176.484 158.536 177.54 158.776 178.66 158.776C179.94 158.776 181.14 158.472 182.26 157.864C183.412 157.224 184.196 156.392 184.612 155.368L190.132 156.904C189.524 158.184 188.644 159.32 187.492 160.312C186.372 161.304 185.044 162.088 183.508 162.664C181.972 163.208 180.276 163.48 178.42 163.48ZM171.844 148.408H184.996C184.868 147.128 184.5 146.024 183.892 145.096C183.316 144.136 182.548 143.4 181.588 142.888C180.628 142.344 179.556 142.072 178.372 142.072C177.22 142.072 176.164 142.344 175.204 142.888C174.276 143.4 173.508 144.136 172.9 145.096C172.324 146.024 171.972 147.128 171.844 148.408Z" fill="black"/>
<path d="M231.727 134.728H220.831V163H214.255V134.728H203.359V128.92H231.727V134.728Z" fill="black"/>
<path d="M242.264 163.48C240.248 163.48 238.424 163.144 236.792 162.472C235.16 161.768 233.768 160.824 232.616 159.64C231.464 158.424 230.568 157.048 229.928 155.512C229.32 153.944 229.016 152.296 229.016 150.568C229.016 148.168 229.544 145.976 230.6 143.992C231.688 142.008 233.224 140.424 235.208 139.24C237.224 138.024 239.592 137.416 242.312 137.416C245.064 137.416 247.416 138.024 249.368 139.24C251.32 140.424 252.808 142.008 253.832 143.992C254.888 145.944 255.416 148.056 255.416 150.328C255.416 150.712 255.4 151.112 255.368 151.528C255.336 151.912 255.304 152.232 255.272 152.488H235.832C235.96 153.768 236.328 154.888 236.936 155.848C237.576 156.808 238.376 157.544 239.336 158.056C240.328 158.536 241.384 158.776 242.504 158.776C243.784 158.776 244.984 158.472 246.104 157.864C247.256 157.224 248.04 156.392 248.456 155.368L253.976 156.904C253.368 158.184 252.488 159.32 251.336 160.312C250.216 161.304 248.888 162.088 247.352 162.664C245.816 163.208 244.12 163.48 242.264 163.48ZM235.688 148.408H248.84C248.712 147.128 248.344 146.024 247.736 145.096C247.16 144.136 246.392 143.4 245.432 142.888C244.472 142.344 243.4 142.072 242.216 142.072C241.064 142.072 240.008 142.344 239.048 142.888C238.12 143.4 237.352 144.136 236.744 145.096C236.168 146.024 235.816 147.128 235.688 148.408Z" fill="black"/>
<path d="M257.606 155.56C257.606 153.928 258.054 152.504 258.95 151.288C259.878 150.04 261.158 149.08 262.79 148.408C264.422 147.736 266.294 147.4 268.406 147.4C269.462 147.4 270.534 147.48 271.622 147.64C272.71 147.8 273.654 148.056 274.454 148.408V147.064C274.454 145.464 273.974 144.232 273.014 143.368C272.086 142.504 270.694 142.072 268.838 142.072C267.462 142.072 266.15 142.312 264.902 142.792C263.654 143.272 262.342 143.976 260.966 144.904L258.902 140.68C260.566 139.592 262.262 138.776 263.99 138.232C265.75 137.688 267.59 137.416 269.51 137.416C273.094 137.416 275.878 138.312 277.862 140.104C279.878 141.896 280.886 144.456 280.886 147.784V155.8C280.886 156.472 280.998 156.952 281.222 157.24C281.478 157.528 281.878 157.704 282.422 157.768V163C281.846 163.096 281.318 163.176 280.838 163.24C280.39 163.304 280.006 163.336 279.686 163.336C278.406 163.336 277.43 163.048 276.758 162.472C276.118 161.896 275.718 161.192 275.558 160.36L275.414 159.064C274.326 160.472 272.966 161.56 271.334 162.328C269.702 163.096 268.038 163.48 266.342 163.48C264.678 163.48 263.174 163.144 261.83 162.472C260.518 161.768 259.478 160.824 258.71 159.64C257.974 158.424 257.606 157.064 257.606 155.56ZM273.254 156.856C273.606 156.472 273.894 156.088 274.118 155.704C274.342 155.32 274.454 154.968 274.454 154.648V152.104C273.686 151.784 272.854 151.544 271.958 151.384C271.062 151.192 270.214 151.096 269.414 151.096C267.75 151.096 266.374 151.464 265.286 152.2C264.23 152.904 263.702 153.848 263.702 155.032C263.702 155.672 263.878 156.28 264.23 156.856C264.582 157.432 265.094 157.896 265.766 158.248C266.438 158.6 267.238 158.776 268.166 158.776C269.126 158.776 270.07 158.6 270.998 158.248C271.926 157.864 272.678 157.4 273.254 156.856Z" fill="black"/>
<path d="M298.609 163.48C296.561 163.48 294.721 163.144 293.089 162.472C291.457 161.768 290.065 160.808 288.913 159.592C287.761 158.344 286.865 156.936 286.225 155.368C285.617 153.8 285.312 152.152 285.312 150.424C285.312 148.056 285.841 145.896 286.897 143.944C287.985 141.96 289.521 140.376 291.505 139.192C293.489 138.008 295.841 137.416 298.561 137.416C301.281 137.416 303.617 138.008 305.569 139.192C307.521 140.376 308.977 141.928 309.937 143.848L303.648 145.768C303.104 144.84 302.384 144.136 301.488 143.656C300.592 143.144 299.601 142.888 298.513 142.888C297.297 142.888 296.176 143.208 295.152 143.848C294.16 144.456 293.377 145.336 292.801 146.488C292.225 147.608 291.937 148.92 291.937 150.424C291.937 151.896 292.225 153.208 292.801 154.36C293.409 155.48 294.209 156.376 295.201 157.048C296.193 157.688 297.297 158.008 298.513 158.008C299.281 158.008 300.001 157.88 300.673 157.624C301.377 157.368 302 157.016 302.544 156.568C303.088 156.12 303.489 155.608 303.745 155.032L310.033 156.952C309.457 158.2 308.608 159.32 307.488 160.312C306.4 161.304 305.104 162.088 303.6 162.664C302.128 163.208 300.465 163.48 298.609 163.48Z" fill="black"/>
<path d="M337.366 163H330.934V148.888C330.934 146.936 330.55 145.48 329.782 144.52C329.046 143.56 328.022 143.08 326.71 143.08C325.942 143.08 325.126 143.304 324.262 143.752C323.398 144.2 322.614 144.824 321.91 145.624C321.238 146.392 320.742 147.288 320.422 148.312V163H313.99V127.96H320.422V142.504C321.35 140.904 322.614 139.656 324.214 138.76C325.814 137.864 327.558 137.416 329.446 137.416C331.078 137.416 332.406 137.704 333.43 138.28C334.454 138.824 335.254 139.576 335.83 140.536C336.406 141.464 336.806 142.52 337.03 143.704C337.254 144.856 337.366 146.056 337.366 147.304V163Z" fill="black"/>
<path d="M354.623 163.48C352.607 163.48 350.783 163.144 349.151 162.472C347.519 161.768 346.127 160.824 344.975 159.64C343.823 158.424 342.927 157.048 342.287 155.512C341.679 153.944 341.375 152.296 341.375 150.568C341.375 148.168 341.903 145.976 342.959 143.992C344.047 142.008 345.583 140.424 347.567 139.24C349.583 138.024 351.951 137.416 354.671 137.416C357.423 137.416 359.775 138.024 361.727 139.24C363.679 140.424 365.167 142.008 366.191 143.992C367.247 145.944 367.775 148.056 367.775 150.328C367.775 150.712 367.759 151.112 367.727 151.528C367.695 151.912 367.663 152.232 367.631 152.488H348.191C348.319 153.768 348.687 154.888 349.295 155.848C349.935 156.808 350.735 157.544 351.695 158.056C352.687 158.536 353.743 158.776 354.863 158.776C356.143 158.776 357.343 158.472 358.463 157.864C359.615 157.224 360.399 156.392 360.815 155.368L366.335 156.904C365.727 158.184 364.847 159.32 363.695 160.312C362.575 161.304 361.247 162.088 359.711 162.664C358.175 163.208 356.479 163.48 354.623 163.48ZM348.047 148.408H361.199C361.071 147.128 360.703 146.024 360.095 145.096C359.519 144.136 358.751 143.4 357.791 142.888C356.831 142.344 355.759 142.072 354.575 142.072C353.423 142.072 352.367 142.344 351.407 142.888C350.479 143.4 349.711 144.136 349.103 145.096C348.527 146.024 348.175 147.128 348.047 148.408Z" fill="black"/>
<path d="M386.669 143.416C384.717 143.416 382.973 143.8 381.437 144.568C379.901 145.304 378.797 146.376 378.125 147.784V163H371.693V137.848H377.597V143.224C378.493 141.496 379.629 140.136 381.005 139.144C382.381 138.152 383.837 137.608 385.373 137.512C385.725 137.512 385.997 137.512 386.189 137.512C386.381 137.512 386.541 137.528 386.669 137.56V143.416Z" fill="black"/>
<path d="M343.925 71.1149C344.157 70.6138 343.939 70.0194 343.438 69.7873C342.936 69.5552 342.342 69.7733 342.11 70.2744L343.925 71.1149ZM344.404 65.7081C344.142 66.1941 344.323 66.8007 344.809 67.0631C345.295 67.3255 345.901 67.1442 346.164 66.6582L344.404 65.7081ZM348.655 62.317C348.941 61.8449 348.791 61.2298 348.318 60.9434C347.846 60.6569 347.231 60.8074 346.945 61.2796L348.655 62.317ZM349.684 56.984C349.377 57.4432 349.5 58.0642 349.96 58.371C350.419 58.6778 351.04 58.5542 351.347 58.095L349.684 56.984ZM354.211 53.9884C354.535 53.5416 354.436 52.9162 353.989 52.5916C353.543 52.2669 352.917 52.3659 352.593 52.8127L354.211 53.9884ZM355.662 48.7484C355.322 49.183 355.398 49.8116 355.832 50.1524C356.267 50.4932 356.895 50.4172 357.236 49.9826L355.662 48.7484ZM360.399 46.0913C360.755 45.6688 360.701 45.038 360.279 44.6823C359.856 44.3265 359.225 44.3807 358.87 44.8031L360.399 46.0913ZM362.211 40.9676C361.842 41.3779 361.875 42.0102 362.285 42.3799C362.695 42.7496 363.327 42.7167 363.697 42.3065L362.211 40.9676ZM367.117 38.635C367.5 38.2371 367.488 37.6041 367.09 37.2211C366.692 36.8381 366.059 36.8502 365.676 37.2481L367.117 38.635ZM369.264 33.6394C368.868 34.0247 368.86 34.6578 369.245 35.0535C369.631 35.4492 370.264 35.4577 370.659 35.0724L369.264 33.6394ZM374.309 31.6326C374.717 31.2604 374.745 30.6279 374.373 30.2199C374.001 29.8119 373.368 29.783 372.96 30.1553L374.309 31.6326ZM376.773 26.7875C376.353 27.1464 376.304 27.7776 376.663 28.1974C377.022 28.6172 377.653 28.6666 378.073 28.3078L376.773 26.7875ZM381.941 25.1087C382.372 24.7637 382.442 24.1345 382.097 23.7032C381.752 23.2719 381.123 23.2019 380.692 23.5469L381.941 25.1087ZM384.712 20.4381C384.27 20.7686 384.179 21.3953 384.51 21.8377C384.84 22.2801 385.467 22.3708 385.909 22.0403L384.712 20.4381ZM389.98 19.1035C390.434 18.7879 390.545 18.1647 390.23 17.7114C389.914 17.2582 389.291 17.1465 388.838 17.462L389.98 19.1035ZM393.063 14.6261C392.599 14.926 392.466 15.5451 392.766 16.0089C393.066 16.4726 393.685 16.6055 394.149 16.3056L393.063 14.6261ZM398.406 13.6561C398.88 13.3725 399.034 12.7584 398.75 12.2845C398.467 11.8106 397.852 11.6564 397.379 11.94L398.406 13.6561ZM401.789 9.40525C401.305 9.67192 401.129 10.2802 401.396 10.7638C401.662 11.2474 402.271 11.4233 402.754 11.1566L401.789 9.40525ZM407.19 8.81369C407.683 8.56467 407.881 7.96317 407.632 7.47022C407.383 6.97726 406.782 6.77951 406.289 7.02854L407.19 8.81369ZM410.875 4.81672C410.373 5.04739 410.153 5.64118 410.384 6.14299C410.614 6.64479 411.208 6.86459 411.71 6.63391L410.875 4.81672ZM416.302 4.62648C416.812 4.41482 417.054 3.8297 416.842 3.31958C416.63 2.80947 416.045 2.56753 415.535 2.7792L416.302 4.62648ZM420.271 0.919021C419.753 1.11102 419.489 1.68645 419.681 2.20429C419.873 2.72213 420.449 2.98627 420.967 2.79428L420.271 0.919021ZM342.922 73.3861C343.232 72.6463 343.566 71.8888 343.925 71.1149L342.11 70.2744C341.742 71.0697 341.397 71.85 341.078 72.6139L342.922 73.3861ZM346.164 66.6582C346.926 65.2471 347.756 63.7976 348.655 62.317L346.945 61.2796C346.03 62.7875 345.182 64.2661 344.404 65.7081L346.164 66.6582ZM351.347 58.095C352.25 56.743 353.205 55.3724 354.211 53.9884L352.593 52.8127C351.572 54.2177 350.602 55.6097 349.684 56.984L351.347 58.095ZM357.236 49.9826C358.249 48.6915 359.303 47.3931 360.399 46.0913L358.87 44.8031C357.759 46.1226 356.689 47.439 355.662 48.7484L357.236 49.9826ZM363.697 42.3065C364.801 41.0812 365.941 39.8563 367.117 38.635L365.676 37.2481C364.485 38.4852 363.33 39.7261 362.211 40.9676L363.697 42.3065ZM370.659 35.0724C371.844 33.9187 373.061 32.7712 374.309 31.6326L372.96 30.1553C371.697 31.3085 370.465 32.4708 369.264 33.6394L370.659 35.0724ZM378.073 28.3078C379.334 27.2297 380.623 26.1625 381.941 25.1087L380.692 23.5469C379.357 24.6144 378.051 25.6955 376.773 26.7875L378.073 28.3078ZM385.909 22.0403C387.241 21.0457 388.598 20.066 389.98 19.1035L388.838 17.462C387.436 18.4375 386.061 19.4303 384.712 20.4381L385.909 22.0403ZM394.149 16.3056C395.544 15.4033 396.963 14.5195 398.406 13.6561L397.379 11.94C395.916 12.8154 394.477 13.7115 393.063 14.6261L394.149 16.3056ZM402.754 11.1566C404.211 10.3534 405.69 9.57173 407.19 8.81369L406.289 7.02854C404.766 7.79761 403.266 8.59051 401.789 9.40525L402.754 11.1566ZM411.71 6.63391C413.22 5.93971 414.751 5.26996 416.302 4.62648L415.535 2.7792C413.961 3.43241 412.407 4.11221 410.875 4.81672L411.71 6.63391ZM420.967 2.79428C421.749 2.50404 422.537 2.22061 423.329 1.9442L422.671 0.0557998C421.866 0.3365 421.066 0.624315 420.271 0.919021L420.967 2.79428Z" fill="black"/>
</svg>
