<svg width="462" height="159" viewBox="0 0 462 159" fill="none" xmlns="http://www.w3.org/2000/svg">
<circle cx="378" cy="89" r="8" fill="#CFE34C"/>
<path d="M24.2158 96.192V102H0.551758V67.92H23.7838V73.728H7.17576V81.936H21.5278V87.312H7.17576V96.192H24.2158Z" fill="black"/>
<path d="M51.9913 102H45.5593V87.888C45.5593 85.872 45.2073 84.4 44.5033 83.472C43.7993 82.544 42.8233 82.08 41.5753 82.08C40.7113 82.08 39.8313 82.304 38.9353 82.752C38.0713 83.2 37.2873 83.824 36.5833 84.624C35.8793 85.392 35.3673 86.288 35.0473 87.312V102H28.6153V76.848H34.4233V81.504C35.0633 80.416 35.8793 79.504 36.8713 78.768C37.8633 78 38.9993 77.424 40.2793 77.04C41.5913 76.624 42.9673 76.416 44.4073 76.416C45.9753 76.416 47.2553 76.704 48.2473 77.28C49.2713 77.824 50.0393 78.576 50.5513 79.536C51.0953 80.464 51.4633 81.52 51.6553 82.704C51.8793 83.888 51.9913 85.088 51.9913 86.304V102Z" fill="black"/>
<path d="M69.296 102.48C67.248 102.48 65.408 102.144 63.776 101.472C62.144 100.768 60.752 99.808 59.6 98.592C58.448 97.344 57.552 95.936 56.912 94.368C56.304 92.8 56 91.152 56 89.424C56 87.056 56.528 84.896 57.584 82.944C58.672 80.96 60.208 79.376 62.192 78.192C64.176 77.008 66.528 76.416 69.248 76.416C71.968 76.416 74.304 77.008 76.256 78.192C78.208 79.376 79.664 80.928 80.624 82.848L74.336 84.768C73.792 83.84 73.072 83.136 72.176 82.656C71.28 82.144 70.288 81.888 69.2 81.888C67.984 81.888 66.864 82.208 65.84 82.848C64.848 83.456 64.064 84.336 63.488 85.488C62.912 86.608 62.624 87.92 62.624 89.424C62.624 90.896 62.912 92.208 63.488 93.36C64.096 94.48 64.896 95.376 65.888 96.048C66.88 96.688 67.984 97.008 69.2 97.008C69.968 97.008 70.688 96.88 71.36 96.624C72.064 96.368 72.688 96.016 73.232 95.568C73.776 95.12 74.176 94.608 74.432 94.032L80.72 95.952C80.144 97.2 79.296 98.32 78.176 99.312C77.088 100.304 75.792 101.088 74.288 101.664C72.816 102.208 71.152 102.48 69.296 102.48Z" fill="black"/>
<path d="M84.4378 92.592V76.848H90.8698V91.2C90.8698 93.12 91.2218 94.576 91.9258 95.568C92.6298 96.528 93.6698 97.008 95.0458 97.008C95.8778 97.008 96.6938 96.848 97.4938 96.528C98.3258 96.176 99.0778 95.664 99.7498 94.992C100.454 94.32 101.046 93.472 101.526 92.448V76.848H107.958V94.8C107.958 95.472 108.07 95.952 108.294 96.24C108.55 96.528 108.95 96.704 109.494 96.768V102C108.854 102.096 108.31 102.16 107.862 102.192C107.446 102.256 107.062 102.288 106.71 102.288C105.558 102.288 104.614 102.032 103.878 101.52C103.174 100.976 102.758 100.24 102.63 99.312L102.486 97.296C101.366 98.992 99.9258 100.288 98.1658 101.184C96.4058 102.048 94.4698 102.48 92.3578 102.48C89.7658 102.48 87.7978 101.648 86.4538 99.984C85.1098 98.288 84.4378 95.824 84.4378 92.592Z" fill="black"/>
<path d="M126.014 102.48C123.998 102.48 122.174 102.144 120.542 101.472C118.91 100.768 117.518 99.824 116.366 98.64C115.214 97.424 114.318 96.048 113.678 94.512C113.07 92.944 112.766 91.296 112.766 89.568C112.766 87.168 113.294 84.976 114.35 82.992C115.438 81.008 116.974 79.424 118.958 78.24C120.974 77.024 123.342 76.416 126.062 76.416C128.814 76.416 131.166 77.024 133.118 78.24C135.07 79.424 136.558 81.008 137.582 82.992C138.638 84.944 139.166 87.056 139.166 89.328C139.166 89.712 139.15 90.112 139.118 90.528C139.086 90.912 139.054 91.232 139.022 91.488H119.582C119.71 92.768 120.078 93.888 120.686 94.848C121.326 95.808 122.126 96.544 123.086 97.056C124.078 97.536 125.134 97.776 126.254 97.776C127.534 97.776 128.734 97.472 129.854 96.864C131.006 96.224 131.79 95.392 132.206 94.368L137.726 95.904C137.118 97.184 136.238 98.32 135.086 99.312C133.966 100.304 132.638 101.088 131.102 101.664C129.566 102.208 127.87 102.48 126.014 102.48ZM119.438 87.408H132.59C132.462 86.128 132.094 85.024 131.486 84.096C130.91 83.136 130.142 82.4 129.182 81.888C128.222 81.344 127.15 81.072 125.966 81.072C124.814 81.072 123.758 81.344 122.798 81.888C121.87 82.4 121.102 83.136 120.494 84.096C119.918 85.024 119.566 86.128 119.438 87.408Z" fill="black"/>
<path d="M166.46 102H160.028V87.888C160.028 85.872 159.676 84.4 158.972 83.472C158.268 82.544 157.292 82.08 156.044 82.08C155.18 82.08 154.3 82.304 153.404 82.752C152.54 83.2 151.756 83.824 151.052 84.624C150.348 85.392 149.836 86.288 149.516 87.312V102H143.084V76.848H148.892V81.504C149.532 80.416 150.348 79.504 151.34 78.768C152.332 78 153.468 77.424 154.748 77.04C156.06 76.624 157.436 76.416 158.876 76.416C160.444 76.416 161.724 76.704 162.716 77.28C163.74 77.824 164.508 78.576 165.02 79.536C165.564 80.464 165.932 81.52 166.124 82.704C166.348 83.888 166.46 85.088 166.46 86.304V102Z" fill="black"/>
<path d="M186.984 100.704C186.44 100.928 185.784 101.184 185.016 101.472C184.248 101.76 183.416 101.984 182.52 102.144C181.656 102.336 180.776 102.432 179.88 102.432C178.696 102.432 177.608 102.224 176.616 101.808C175.624 101.392 174.824 100.736 174.216 99.84C173.64 98.912 173.352 97.712 173.352 96.24V81.792H170.04V76.848H173.352V68.688H179.784V76.848H185.064V81.792H179.784V94.08C179.816 94.944 180.056 95.568 180.504 95.952C180.952 96.336 181.512 96.528 182.184 96.528C182.856 96.528 183.512 96.416 184.152 96.192C184.792 95.968 185.304 95.776 185.688 95.616L186.984 100.704Z" fill="black"/>
<path d="M188.606 94.56C188.606 92.928 189.054 91.504 189.95 90.288C190.878 89.04 192.158 88.08 193.79 87.408C195.422 86.736 197.294 86.4 199.406 86.4C200.462 86.4 201.534 86.48 202.622 86.64C203.71 86.8 204.654 87.056 205.454 87.408V86.064C205.454 84.464 204.974 83.232 204.014 82.368C203.086 81.504 201.694 81.072 199.838 81.072C198.462 81.072 197.15 81.312 195.902 81.792C194.654 82.272 193.342 82.976 191.966 83.904L189.902 79.68C191.566 78.592 193.262 77.776 194.99 77.232C196.75 76.688 198.59 76.416 200.51 76.416C204.094 76.416 206.878 77.312 208.862 79.104C210.878 80.896 211.886 83.456 211.886 86.784V94.8C211.886 95.472 211.998 95.952 212.222 96.24C212.478 96.528 212.878 96.704 213.422 96.768V102C212.846 102.096 212.318 102.176 211.838 102.24C211.39 102.304 211.006 102.336 210.686 102.336C209.406 102.336 208.43 102.048 207.758 101.472C207.118 100.896 206.718 100.192 206.558 99.36L206.414 98.064C205.326 99.472 203.966 100.56 202.334 101.328C200.702 102.096 199.038 102.48 197.342 102.48C195.678 102.48 194.174 102.144 192.83 101.472C191.518 100.768 190.478 99.824 189.71 98.64C188.974 97.424 188.606 96.064 188.606 94.56ZM204.254 95.856C204.606 95.472 204.894 95.088 205.118 94.704C205.342 94.32 205.454 93.968 205.454 93.648V91.104C204.686 90.784 203.854 90.544 202.958 90.384C202.062 90.192 201.214 90.096 200.414 90.096C198.75 90.096 197.374 90.464 196.286 91.2C195.23 91.904 194.702 92.848 194.702 94.032C194.702 94.672 194.878 95.28 195.23 95.856C195.582 96.432 196.094 96.896 196.766 97.248C197.438 97.6 198.238 97.776 199.166 97.776C200.126 97.776 201.07 97.6 201.998 97.248C202.926 96.864 203.678 96.4 204.254 95.856Z" fill="black"/>
<path d="M253.716 96.192V102H230.052V67.92H253.284V73.728H236.676V81.936H251.028V87.312H236.676V96.192H253.716Z" fill="black"/>
<path d="M258.208 66.96H264.64V93.936C264.64 95.088 264.832 95.872 265.216 96.288C265.6 96.672 266.128 96.864 266.8 96.864C267.312 96.864 267.84 96.8 268.384 96.672C268.928 96.544 269.408 96.384 269.824 96.192L270.688 101.088C269.824 101.504 268.816 101.824 267.664 102.048C266.512 102.272 265.472 102.384 264.544 102.384C262.528 102.384 260.96 101.856 259.84 100.8C258.752 99.712 258.208 98.176 258.208 96.192V66.96Z" fill="black"/>
<path d="M312.125 102V79.632L303.389 96.288H299.693L290.957 79.632V102H284.333V67.92H291.437L301.517 87.312L311.693 67.92H318.749V102H312.125Z" fill="black"/>
<path d="M336.482 102.48C334.466 102.48 332.642 102.144 331.01 101.472C329.378 100.768 327.986 99.824 326.834 98.64C325.682 97.424 324.786 96.048 324.146 94.512C323.538 92.944 323.234 91.296 323.234 89.568C323.234 87.168 323.762 84.976 324.818 82.992C325.906 81.008 327.442 79.424 329.426 78.24C331.442 77.024 333.81 76.416 336.53 76.416C339.282 76.416 341.634 77.024 343.586 78.24C345.538 79.424 347.026 81.008 348.05 82.992C349.106 84.944 349.634 87.056 349.634 89.328C349.634 89.712 349.618 90.112 349.586 90.528C349.554 90.912 349.522 91.232 349.49 91.488H330.05C330.178 92.768 330.546 93.888 331.154 94.848C331.794 95.808 332.594 96.544 333.554 97.056C334.546 97.536 335.602 97.776 336.722 97.776C338.002 97.776 339.202 97.472 340.322 96.864C341.474 96.224 342.258 95.392 342.674 94.368L348.194 95.904C347.586 97.184 346.706 98.32 345.554 99.312C344.434 100.304 343.106 101.088 341.57 101.664C340.034 102.208 338.338 102.48 336.482 102.48ZM329.906 87.408H343.058C342.93 86.128 342.562 85.024 341.954 84.096C341.378 83.136 340.61 82.4 339.65 81.888C338.69 81.344 337.618 81.072 336.434 81.072C335.282 81.072 334.226 81.344 333.266 81.888C332.338 82.4 331.57 83.136 330.962 84.096C330.386 85.024 330.034 86.128 329.906 87.408Z" fill="black"/>
<path d="M351.489 111.408C350.305 111.408 349.169 111.216 348.081 110.832C346.993 110.48 346.001 109.92 345.105 109.152L347.889 104.784C348.241 105.168 348.673 105.44 349.185 105.6C349.697 105.76 350.209 105.84 350.721 105.84C351.297 105.84 351.809 105.696 352.257 105.408C352.737 105.152 353.105 104.784 353.361 104.304C353.649 103.824 353.793 103.28 353.793 102.672V76.848H360.225V102.192C360.225 103.984 359.825 105.584 359.025 106.992C358.257 108.4 357.217 109.488 355.905 110.256C354.625 111.024 353.153 111.408 351.489 111.408ZM353.793 73.344V66.96H360.225V73.344H353.793Z" fill="black"/>
<path d="M377.684 102.48C375.636 102.48 373.796 102.144 372.164 101.472C370.532 100.768 369.14 99.808 367.988 98.592C366.868 97.376 366.004 95.984 365.396 94.416C364.788 92.848 364.484 91.2 364.484 89.472C364.484 87.712 364.788 86.048 365.396 84.48C366.004 82.912 366.868 81.52 367.988 80.304C369.14 79.088 370.532 78.144 372.164 77.472C373.796 76.768 375.636 76.416 377.684 76.416C379.732 76.416 381.556 76.768 383.156 77.472C384.788 78.144 386.18 79.088 387.332 80.304C388.484 81.52 389.348 82.912 389.924 84.48C390.532 86.048 390.836 87.712 390.836 89.472C390.836 91.2 390.532 92.848 389.924 94.416C389.348 95.984 388.484 97.376 387.332 98.592C386.212 99.808 384.836 100.768 383.204 101.472C381.572 102.144 379.732 102.48 377.684 102.48ZM371.108 89.472C371.108 90.944 371.396 92.256 371.972 93.408C372.548 94.528 373.332 95.408 374.324 96.048C375.316 96.688 376.436 97.008 377.684 97.008C378.9 97.008 380.004 96.688 380.996 96.048C381.988 95.376 382.772 94.48 383.348 93.36C383.956 92.208 384.26 90.896 384.26 89.424C384.26 87.984 383.956 86.688 383.348 85.536C382.772 84.384 381.988 83.488 380.996 82.848C380.004 82.208 378.9 81.888 377.684 81.888C376.436 81.888 375.316 82.224 374.324 82.896C373.332 83.536 372.548 84.432 371.972 85.584C371.396 86.704 371.108 88 371.108 89.472Z" fill="black"/>
<path d="M410.154 82.416C408.202 82.416 406.458 82.8 404.922 83.568C403.386 84.304 402.282 85.376 401.61 86.784V102H395.178V76.848H401.082V82.224C401.978 80.496 403.114 79.136 404.49 78.144C405.866 77.152 407.322 76.608 408.858 76.512C409.21 76.512 409.482 76.512 409.674 76.512C409.866 76.512 410.026 76.528 410.154 76.56V82.416Z" fill="black"/>
<path d="M0.551758 158V123.92H14.9998C16.5678 123.92 18.0078 124.24 19.3198 124.88C20.6318 125.52 21.7678 126.384 22.7278 127.472C23.7198 128.56 24.4878 129.776 25.0318 131.12C25.5758 132.464 25.8478 133.84 25.8478 135.248C25.8478 137.168 25.3998 138.992 24.5038 140.72C23.6078 142.448 22.3758 143.856 20.8078 144.944C19.2398 146.032 17.3838 146.576 15.2398 146.576H7.17576V158H0.551758ZM7.17576 140.768H14.8558C15.6558 140.768 16.3758 140.544 17.0158 140.096C17.6558 139.648 18.1678 139.008 18.5518 138.176C18.9358 137.312 19.1278 136.336 19.1278 135.248C19.1278 134.064 18.9038 133.056 18.4558 132.224C18.0398 131.392 17.4798 130.768 16.7758 130.352C16.1038 129.936 15.3678 129.728 14.5678 129.728H7.17576V140.768Z" fill="black"/>
<path d="M44.81 138.416C42.858 138.416 41.114 138.8 39.578 139.568C38.042 140.304 36.938 141.376 36.266 142.784V158H29.834V132.848H35.738V138.224C36.634 136.496 37.77 135.136 39.146 134.144C40.522 133.152 41.978 132.608 43.514 132.512C43.866 132.512 44.138 132.512 44.33 132.512C44.522 132.512 44.682 132.528 44.81 132.56V138.416Z" fill="black"/>
<path d="M59.6844 158.48C57.6364 158.48 55.7964 158.144 54.1644 157.472C52.5324 156.768 51.1404 155.808 49.9884 154.592C48.8684 153.376 48.0044 151.984 47.3964 150.416C46.7884 148.848 46.4844 147.2 46.4844 145.472C46.4844 143.712 46.7884 142.048 47.3964 140.48C48.0044 138.912 48.8684 137.52 49.9884 136.304C51.1404 135.088 52.5324 134.144 54.1644 133.472C55.7964 132.768 57.6364 132.416 59.6844 132.416C61.7324 132.416 63.5564 132.768 65.1564 133.472C66.7884 134.144 68.1804 135.088 69.3324 136.304C70.4844 137.52 71.3484 138.912 71.9244 140.48C72.5324 142.048 72.8364 143.712 72.8364 145.472C72.8364 147.2 72.5324 148.848 71.9244 150.416C71.3484 151.984 70.4844 153.376 69.3324 154.592C68.2124 155.808 66.8364 156.768 65.2044 157.472C63.5724 158.144 61.7324 158.48 59.6844 158.48ZM53.1084 145.472C53.1084 146.944 53.3964 148.256 53.9724 149.408C54.5484 150.528 55.3324 151.408 56.3244 152.048C57.3164 152.688 58.4364 153.008 59.6844 153.008C60.9004 153.008 62.0044 152.688 62.9964 152.048C63.9884 151.376 64.7724 150.48 65.3484 149.36C65.9564 148.208 66.2604 146.896 66.2604 145.424C66.2604 143.984 65.9564 142.688 65.3484 141.536C64.7724 140.384 63.9884 139.488 62.9964 138.848C62.0044 138.208 60.9004 137.888 59.6844 137.888C58.4364 137.888 57.3164 138.224 56.3244 138.896C55.3324 139.536 54.5484 140.432 53.9724 141.584C53.3964 142.704 53.1084 144 53.1084 145.472Z" fill="black"/>
<path d="M78.4794 158V139.088H75.1674V134.192H78.4794V132.656C78.4794 130.576 78.8154 128.784 79.4874 127.28C80.1914 125.744 81.1674 124.56 82.4154 123.728C83.6954 122.896 85.1834 122.48 86.8794 122.48C87.9034 122.48 88.9274 122.608 89.9514 122.864C91.0074 123.12 92.0474 123.488 93.0714 123.968L91.7754 128.816C91.2954 128.56 90.7354 128.352 90.0954 128.192C89.4554 128 88.8474 127.904 88.2714 127.904C87.1834 127.904 86.3514 128.288 85.7754 129.056C85.1994 129.824 84.9114 130.944 84.9114 132.416V134.192H91.0554V139.088H84.9114V158H78.4794Z" fill="black"/>
<path d="M106.045 158.48C104.029 158.48 102.205 158.144 100.573 157.472C98.9409 156.768 97.5489 155.824 96.3969 154.64C95.2449 153.424 94.3489 152.048 93.7089 150.512C93.1009 148.944 92.7969 147.296 92.7969 145.568C92.7969 143.168 93.3249 140.976 94.3809 138.992C95.4689 137.008 97.0049 135.424 98.9889 134.24C101.005 133.024 103.373 132.416 106.093 132.416C108.845 132.416 111.197 133.024 113.149 134.24C115.101 135.424 116.589 137.008 117.613 138.992C118.669 140.944 119.197 143.056 119.197 145.328C119.197 145.712 119.181 146.112 119.149 146.528C119.117 146.912 119.085 147.232 119.053 147.488H99.6129C99.7409 148.768 100.109 149.888 100.717 150.848C101.357 151.808 102.157 152.544 103.117 153.056C104.109 153.536 105.165 153.776 106.285 153.776C107.565 153.776 108.765 153.472 109.885 152.864C111.037 152.224 111.821 151.392 112.237 150.368L117.757 151.904C117.149 153.184 116.269 154.32 115.117 155.312C113.997 156.304 112.669 157.088 111.133 157.664C109.597 158.208 107.901 158.48 106.045 158.48ZM99.4689 143.408H112.621C112.493 142.128 112.125 141.024 111.517 140.096C110.941 139.136 110.173 138.4 109.213 137.888C108.253 137.344 107.181 137.072 105.997 137.072C104.845 137.072 103.789 137.344 102.829 137.888C101.901 138.4 101.133 139.136 100.525 140.096C99.9489 141.024 99.5969 142.128 99.4689 143.408Z" fill="black"/>
<path d="M132.379 158.48C130.235 158.48 128.187 158.128 126.235 157.424C124.283 156.72 122.603 155.68 121.195 154.304L123.499 150.128C125.003 151.344 126.475 152.24 127.915 152.816C129.387 153.392 130.795 153.68 132.139 153.68C133.387 153.68 134.379 153.456 135.115 153.008C135.883 152.56 136.267 151.888 136.267 150.992C136.267 150.384 136.059 149.92 135.643 149.6C135.227 149.248 134.619 148.944 133.819 148.688C133.051 148.432 132.107 148.144 130.987 147.824C129.131 147.216 127.579 146.624 126.331 146.048C125.083 145.472 124.139 144.752 123.499 143.888C122.891 142.992 122.587 141.856 122.587 140.48C122.587 138.816 123.003 137.392 123.835 136.208C124.699 134.992 125.883 134.048 127.387 133.376C128.923 132.704 130.715 132.368 132.763 132.368C134.555 132.368 136.251 132.656 137.851 133.232C139.451 133.776 140.907 134.672 142.219 135.92L139.627 140C138.347 139.008 137.131 138.288 135.979 137.84C134.827 137.36 133.659 137.12 132.475 137.12C131.803 137.12 131.163 137.2 130.555 137.36C129.979 137.52 129.499 137.792 129.115 138.176C128.763 138.528 128.587 139.04 128.587 139.712C128.587 140.32 128.747 140.8 129.067 141.152C129.419 141.472 129.931 141.76 130.603 142.016C131.307 142.272 132.155 142.56 133.147 142.88C135.163 143.456 136.859 144.048 138.235 144.656C139.643 145.264 140.699 146.016 141.403 146.912C142.107 147.776 142.459 148.976 142.459 150.512C142.459 153.008 141.547 154.96 139.723 156.368C137.899 157.776 135.451 158.48 132.379 158.48Z" fill="black"/>
<path d="M158.45 158.48C156.402 158.48 154.562 158.144 152.93 157.472C151.298 156.768 149.906 155.808 148.754 154.592C147.634 153.376 146.77 151.984 146.162 150.416C145.554 148.848 145.25 147.2 145.25 145.472C145.25 143.712 145.554 142.048 146.162 140.48C146.77 138.912 147.634 137.52 148.754 136.304C149.906 135.088 151.298 134.144 152.93 133.472C154.562 132.768 156.402 132.416 158.45 132.416C160.498 132.416 162.322 132.768 163.922 133.472C165.554 134.144 166.946 135.088 168.098 136.304C169.25 137.52 170.114 138.912 170.69 140.48C171.298 142.048 171.602 143.712 171.602 145.472C171.602 147.2 171.298 148.848 170.69 150.416C170.114 151.984 169.25 153.376 168.098 154.592C166.978 155.808 165.602 156.768 163.97 157.472C162.338 158.144 160.498 158.48 158.45 158.48ZM151.874 145.472C151.874 146.944 152.162 148.256 152.738 149.408C153.314 150.528 154.098 151.408 155.09 152.048C156.082 152.688 157.202 153.008 158.45 153.008C159.666 153.008 160.77 152.688 161.762 152.048C162.754 151.376 163.538 150.48 164.114 149.36C164.722 148.208 165.026 146.896 165.026 145.424C165.026 143.984 164.722 142.688 164.114 141.536C163.538 140.384 162.754 139.488 161.762 138.848C160.77 138.208 159.666 137.888 158.45 137.888C157.202 137.888 156.082 138.224 155.09 138.896C154.098 139.536 153.314 140.432 152.738 141.584C152.162 142.704 151.874 144 151.874 145.472Z" fill="black"/>
<path d="M190.919 138.416C188.967 138.416 187.223 138.8 185.687 139.568C184.151 140.304 183.047 141.376 182.375 142.784V158H175.943V132.848H181.847V138.224C182.743 136.496 183.879 135.136 185.255 134.144C186.631 133.152 188.087 132.608 189.623 132.512C189.975 132.512 190.247 132.512 190.439 132.512C190.631 132.512 190.791 132.528 190.919 132.56V138.416Z" fill="black"/>
<path d="M205.583 158V123.92H220.031C221.599 123.92 223.039 124.24 224.351 124.88C225.663 125.52 226.799 126.384 227.759 127.472C228.751 128.56 229.519 129.776 230.063 131.12C230.607 132.464 230.879 133.84 230.879 135.248C230.879 137.168 230.431 138.992 229.535 140.72C228.639 142.448 227.407 143.856 225.839 144.944C224.271 146.032 222.415 146.576 220.271 146.576H212.207V158H205.583ZM212.207 140.768H219.887C220.687 140.768 221.407 140.544 222.047 140.096C222.687 139.648 223.199 139.008 223.583 138.176C223.967 137.312 224.159 136.336 224.159 135.248C224.159 134.064 223.935 133.056 223.487 132.224C223.071 131.392 222.511 130.768 221.807 130.352C221.135 129.936 220.399 129.728 219.599 129.728H212.207V140.768Z" fill="black"/>
<path d="M245.966 158.48C243.918 158.48 242.078 158.144 240.446 157.472C238.814 156.768 237.422 155.808 236.27 154.592C235.15 153.376 234.286 151.984 233.678 150.416C233.07 148.848 232.766 147.2 232.766 145.472C232.766 143.712 233.07 142.048 233.678 140.48C234.286 138.912 235.15 137.52 236.27 136.304C237.422 135.088 238.814 134.144 240.446 133.472C242.078 132.768 243.918 132.416 245.966 132.416C248.014 132.416 249.838 132.768 251.438 133.472C253.07 134.144 254.462 135.088 255.614 136.304C256.766 137.52 257.63 138.912 258.206 140.48C258.814 142.048 259.118 143.712 259.118 145.472C259.118 147.2 258.814 148.848 258.206 150.416C257.63 151.984 256.766 153.376 255.614 154.592C254.494 155.808 253.118 156.768 251.486 157.472C249.854 158.144 248.014 158.48 245.966 158.48ZM239.39 145.472C239.39 146.944 239.678 148.256 240.254 149.408C240.83 150.528 241.614 151.408 242.606 152.048C243.598 152.688 244.718 153.008 245.966 153.008C247.182 153.008 248.286 152.688 249.278 152.048C250.27 151.376 251.054 150.48 251.63 149.36C252.238 148.208 252.542 146.896 252.542 145.424C252.542 143.984 252.238 142.688 251.63 141.536C251.054 140.384 250.27 139.488 249.278 138.848C248.286 138.208 247.182 137.888 245.966 137.888C244.718 137.888 243.598 138.224 242.606 138.896C241.614 139.536 240.83 140.432 240.254 141.584C239.678 142.704 239.39 144 239.39 145.472Z" fill="black"/>
<path d="M272.723 158.48C270.579 158.48 268.531 158.128 266.579 157.424C264.627 156.72 262.947 155.68 261.539 154.304L263.843 150.128C265.347 151.344 266.819 152.24 268.259 152.816C269.731 153.392 271.139 153.68 272.483 153.68C273.731 153.68 274.723 153.456 275.459 153.008C276.227 152.56 276.611 151.888 276.611 150.992C276.611 150.384 276.403 149.92 275.987 149.6C275.571 149.248 274.963 148.944 274.163 148.688C273.395 148.432 272.451 148.144 271.331 147.824C269.475 147.216 267.923 146.624 266.675 146.048C265.427 145.472 264.483 144.752 263.843 143.888C263.235 142.992 262.931 141.856 262.931 140.48C262.931 138.816 263.347 137.392 264.179 136.208C265.043 134.992 266.227 134.048 267.731 133.376C269.267 132.704 271.059 132.368 273.107 132.368C274.899 132.368 276.595 132.656 278.195 133.232C279.795 133.776 281.251 134.672 282.563 135.92L279.971 140C278.691 139.008 277.475 138.288 276.323 137.84C275.171 137.36 274.003 137.12 272.819 137.12C272.147 137.12 271.507 137.2 270.899 137.36C270.323 137.52 269.843 137.792 269.459 138.176C269.107 138.528 268.931 139.04 268.931 139.712C268.931 140.32 269.091 140.8 269.411 141.152C269.763 141.472 270.275 141.76 270.947 142.016C271.651 142.272 272.499 142.56 273.491 142.88C275.507 143.456 277.203 144.048 278.579 144.656C279.987 145.264 281.043 146.016 281.747 146.912C282.451 147.776 282.803 148.976 282.803 150.512C282.803 153.008 281.891 154.96 280.067 156.368C278.243 157.776 275.795 158.48 272.723 158.48Z" fill="black"/>
<path d="M287.178 158V132.848H293.61V158H287.178ZM287.178 129.344V122.96H293.61V129.344H287.178Z" fill="black"/>
<path d="M313.716 158.48C311.796 158.48 310.084 158.048 308.58 157.184C307.076 156.32 305.892 155.136 305.028 153.632V158H299.412V122.96H305.844V137.264C306.74 135.76 307.908 134.576 309.348 133.712C310.82 132.848 312.532 132.416 314.484 132.416C316.116 132.416 317.604 132.768 318.948 133.472C320.292 134.144 321.444 135.088 322.404 136.304C323.396 137.52 324.148 138.912 324.66 140.48C325.204 142.048 325.476 143.728 325.476 145.52C325.476 147.312 325.172 148.992 324.564 150.56C323.988 152.128 323.172 153.52 322.116 154.736C321.06 155.92 319.812 156.848 318.372 157.52C316.964 158.16 315.412 158.48 313.716 158.48ZM311.94 153.008C312.964 153.008 313.892 152.816 314.724 152.432C315.588 152.016 316.324 151.472 316.932 150.8C317.572 150.128 318.052 149.344 318.372 148.448C318.724 147.52 318.9 146.56 318.9 145.568C318.9 144.192 318.612 142.928 318.036 141.776C317.492 140.592 316.724 139.648 315.732 138.944C314.772 138.24 313.636 137.888 312.324 137.888C311.396 137.888 310.5 138.112 309.636 138.56C308.804 138.976 308.052 139.552 307.38 140.288C306.74 141.024 306.228 141.856 305.844 142.784V148.784C306.036 149.424 306.34 150 306.756 150.512C307.204 151.024 307.716 151.472 308.292 151.856C308.868 152.208 309.46 152.496 310.068 152.72C310.708 152.912 311.332 153.008 311.94 153.008Z" fill="black"/>
<path d="M329.786 122.96H336.218V149.936C336.218 151.088 336.41 151.872 336.794 152.288C337.178 152.672 337.706 152.864 338.378 152.864C338.89 152.864 339.418 152.8 339.962 152.672C340.506 152.544 340.986 152.384 341.402 152.192L342.266 157.088C341.402 157.504 340.394 157.824 339.242 158.048C338.09 158.272 337.05 158.384 336.122 158.384C334.106 158.384 332.538 157.856 331.418 156.8C330.33 155.712 329.786 154.176 329.786 152.192V122.96Z" fill="black"/>
<path d="M356.732 158.48C354.716 158.48 352.892 158.144 351.26 157.472C349.628 156.768 348.236 155.824 347.084 154.64C345.932 153.424 345.036 152.048 344.396 150.512C343.788 148.944 343.484 147.296 343.484 145.568C343.484 143.168 344.012 140.976 345.068 138.992C346.156 137.008 347.692 135.424 349.676 134.24C351.692 133.024 354.06 132.416 356.78 132.416C359.532 132.416 361.884 133.024 363.836 134.24C365.788 135.424 367.276 137.008 368.3 138.992C369.356 140.944 369.884 143.056 369.884 145.328C369.884 145.712 369.868 146.112 369.836 146.528C369.804 146.912 369.772 147.232 369.74 147.488H350.3C350.428 148.768 350.796 149.888 351.404 150.848C352.044 151.808 352.844 152.544 353.804 153.056C354.796 153.536 355.852 153.776 356.972 153.776C358.252 153.776 359.452 153.472 360.572 152.864C361.724 152.224 362.508 151.392 362.924 150.368L368.444 151.904C367.836 153.184 366.956 154.32 365.804 155.312C364.684 156.304 363.356 157.088 361.82 157.664C360.284 158.208 358.588 158.48 356.732 158.48ZM350.156 143.408H363.308C363.18 142.128 362.812 141.024 362.204 140.096C361.628 139.136 360.86 138.4 359.9 137.888C358.94 137.344 357.868 137.072 356.684 137.072C355.532 137.072 354.476 137.344 353.516 137.888C352.588 138.4 351.82 139.136 351.212 140.096C350.636 141.024 350.284 142.128 350.156 143.408Z" fill="black"/>
<path d="M381.925 71.1149C382.157 70.6138 381.939 70.0194 381.438 69.7873C380.936 69.5552 380.342 69.7733 380.11 70.2744L381.925 71.1149ZM382.404 65.7081C382.142 66.1941 382.323 66.8007 382.809 67.0631C383.295 67.3255 383.901 67.1442 384.164 66.6582L382.404 65.7081ZM386.655 62.317C386.941 61.8449 386.791 61.2298 386.318 60.9434C385.846 60.6569 385.231 60.8074 384.945 61.2796L386.655 62.317ZM387.684 56.984C387.377 57.4432 387.5 58.0642 387.96 58.371C388.419 58.6778 389.04 58.5542 389.347 58.095L387.684 56.984ZM392.211 53.9884C392.535 53.5416 392.436 52.9162 391.989 52.5916C391.543 52.2669 390.917 52.3659 390.593 52.8127L392.211 53.9884ZM393.662 48.7484C393.322 49.183 393.398 49.8116 393.832 50.1524C394.267 50.4932 394.895 50.4172 395.236 49.9826L393.662 48.7484ZM398.399 46.0913C398.755 45.6688 398.701 45.038 398.279 44.6823C397.856 44.3265 397.225 44.3807 396.87 44.8031L398.399 46.0913ZM400.211 40.9676C399.842 41.3779 399.875 42.0102 400.285 42.3799C400.695 42.7496 401.327 42.7167 401.697 42.3065L400.211 40.9676ZM405.117 38.635C405.5 38.2371 405.488 37.6041 405.09 37.2211C404.692 36.8381 404.059 36.8502 403.676 37.2481L405.117 38.635ZM407.264 33.6394C406.868 34.0247 406.86 34.6578 407.245 35.0535C407.631 35.4492 408.264 35.4577 408.659 35.0724L407.264 33.6394ZM412.309 31.6326C412.717 31.2604 412.745 30.6278 412.373 30.2199C412.001 29.8119 411.368 29.783 410.96 30.1553L412.309 31.6326ZM414.773 26.7875C414.353 27.1464 414.304 27.7776 414.663 28.1974C415.022 28.6172 415.653 28.6666 416.073 28.3078L414.773 26.7875ZM419.941 25.1087C420.372 24.7637 420.442 24.1345 420.097 23.7032C419.752 23.2719 419.123 23.2019 418.692 23.5469L419.941 25.1087ZM422.712 20.4381C422.27 20.7686 422.179 21.3953 422.51 21.8377C422.84 22.2801 423.467 22.3708 423.909 22.0403L422.712 20.4381ZM427.98 19.1035C428.434 18.7879 428.545 18.1647 428.23 17.7114C427.914 17.2582 427.291 17.1465 426.838 17.462L427.98 19.1035ZM431.063 14.6261C430.599 14.926 430.466 15.5451 430.766 16.0089C431.066 16.4726 431.685 16.6055 432.149 16.3056L431.063 14.6261ZM436.406 13.6561C436.88 13.3725 437.034 12.7584 436.75 12.2845C436.467 11.8106 435.852 11.6564 435.379 11.94L436.406 13.6561ZM439.789 9.40525C439.305 9.67192 439.129 10.2802 439.396 10.7638C439.662 11.2474 440.271 11.4233 440.754 11.1566L439.789 9.40525ZM445.19 8.81369C445.683 8.56467 445.881 7.96317 445.632 7.47022C445.383 6.97726 444.782 6.77951 444.289 7.02854L445.19 8.81369ZM448.875 4.81672C448.373 5.04739 448.153 5.64118 448.384 6.14299C448.614 6.64479 449.208 6.86459 449.71 6.63391L448.875 4.81672ZM454.302 4.62648C454.812 4.41482 455.054 3.8297 454.842 3.31958C454.63 2.80947 454.045 2.56753 453.535 2.7792L454.302 4.62648ZM458.271 0.919021C457.753 1.11102 457.489 1.68645 457.681 2.20429C457.873 2.72213 458.449 2.98627 458.967 2.79428L458.271 0.919021ZM380.922 73.3861C381.232 72.6463 381.566 71.8888 381.925 71.1149L380.11 70.2744C379.742 71.0697 379.397 71.85 379.078 72.6139L380.922 73.3861ZM384.164 66.6582C384.926 65.2471 385.756 63.7976 386.655 62.317L384.945 61.2796C384.03 62.7875 383.182 64.2661 382.404 65.7081L384.164 66.6582ZM389.347 58.095C390.25 56.743 391.205 55.3724 392.211 53.9884L390.593 52.8127C389.572 54.2177 388.602 55.6097 387.684 56.984L389.347 58.095ZM395.236 49.9826C396.249 48.6915 397.303 47.3931 398.399 46.0913L396.87 44.8031C395.759 46.1226 394.689 47.439 393.662 48.7484L395.236 49.9826ZM401.697 42.3065C402.801 41.0812 403.941 39.8563 405.117 38.635L403.676 37.2481C402.485 38.4852 401.33 39.7261 400.211 40.9676L401.697 42.3065ZM408.659 35.0724C409.844 33.9187 411.061 32.7712 412.309 31.6326L410.96 30.1553C409.697 31.3085 408.465 32.4708 407.264 33.6394L408.659 35.0724ZM416.073 28.3078C417.334 27.2297 418.623 26.1625 419.941 25.1087L418.692 23.5469C417.357 24.6144 416.051 25.6955 414.773 26.7875L416.073 28.3078ZM423.909 22.0403C425.241 21.0457 426.598 20.066 427.98 19.1035L426.838 17.462C425.437 18.4375 424.061 19.4303 422.712 20.4381L423.909 22.0403ZM432.149 16.3056C433.544 15.4033 434.963 14.5195 436.406 13.6561L435.379 11.94C433.916 12.8154 432.477 13.7115 431.063 14.6261L432.149 16.3056ZM440.754 11.1566C442.211 10.3534 443.69 9.57173 445.19 8.81369L444.289 7.02854C442.766 7.79761 441.266 8.59051 439.789 9.40525L440.754 11.1566ZM449.71 6.63391C451.22 5.93971 452.751 5.26996 454.302 4.62648L453.535 2.7792C451.961 3.43241 450.407 4.11221 448.875 4.81672L449.71 6.63391ZM458.967 2.79428C459.749 2.50404 460.537 2.22061 461.329 1.9442L460.671 0.0557998C459.866 0.3365 459.066 0.624315 458.271 0.919021L458.967 2.79428Z" fill="black"/>
</svg>
