<svg width="512" height="522" viewBox="0 0 512 522" fill="none" xmlns="http://www.w3.org/2000/svg">
<circle cx="256" cy="256.085" r="256" fill="white"/>
<path fill-rule="evenodd" clip-rule="evenodd" d="M158.72 19.216C65.58 57.5087 0 149.138 0 256.085C0 363.032 65.58 454.662 158.72 492.955V19.216ZM264.065 511.961C401.718 507.701 512 394.772 512 256.085C512 249.994 511.787 243.953 511.369 237.968C505.048 254.256 496.233 269.371 484.925 283.313C470.879 301.228 451.747 315.753 427.53 326.889C403.797 337.541 374.495 342.867 339.622 342.867H264.065V511.961ZM378.854 232.475C368.198 237.801 354.879 240.464 338.895 240.464H264.065V79.2338H339.622C358.027 79.2338 372.557 82.381 383.213 88.6752C394.353 94.9695 402.586 102.716 407.914 111.916C413.242 121.115 416.632 130.314 418.085 139.514C420.023 148.229 420.992 155.249 420.992 160.575C420.992 167.353 419.538 175.342 416.632 184.542C414.211 193.741 409.852 202.698 403.555 211.413C397.743 219.644 389.509 226.665 378.854 232.475Z" fill="black"/>
</svg>
