<svg width="512" height="512" viewBox="0 0 512 512" fill="none" xmlns="http://www.w3.org/2000/svg">
<circle cx="256" cy="256" r="243.582" fill="white"/>
<path fill-rule="evenodd" clip-rule="evenodd" d="M163.076 29.8183C74.1063 66.3964 11.4627 153.923 11.4627 256.081C11.4627 358.24 74.1063 445.767 163.076 482.345V29.8183ZM263.703 500.5C395.193 496.431 500.537 388.558 500.537 256.081C500.537 250.263 500.334 244.492 499.934 238.776C493.896 254.334 485.476 268.773 474.674 282.09C461.257 299.202 442.982 313.077 419.85 323.715C397.18 333.89 369.189 338.977 335.878 338.977H263.703V500.5ZM373.353 233.528C363.174 238.616 350.451 241.159 335.184 241.159H263.703V87.1488H335.878C353.459 87.1488 367.338 90.155 377.517 96.1674C388.158 102.18 396.023 109.58 401.112 118.367C406.201 127.155 409.44 135.942 410.828 144.729C412.679 153.054 413.604 159.76 413.604 164.848C413.604 171.323 412.216 178.954 409.44 187.741C407.127 196.529 402.963 205.085 396.948 213.41C391.396 221.272 383.531 227.978 373.353 233.528Z" fill="black"/>
</svg>
